<svg width="1650" height="814" viewBox="0 0 1650 814" fill="none" xmlns="http://www.w3.org/2000/svg">
<path d="M308.121 689.325C202.693 689.325 51.5663 889.043 13.5943 782.927C6.45423 598.893 -3.54152 160.448 13.5946 83.164C35.0147 -13.4413 -60.9523 -25.1063 72.3304 44.1218C109.682 63.5224 343.295 151.574 495.06 83.1644C679.396 0.0730777 782.677 113.433 916.478 102.685C1072.26 90.1713 1211.36 10.6584 1342.93 102.685C1426.67 161.249 1568.71 38.6155 1583.8 83.164C1592.73 252.182 1624 643.082 1624 725.016C1624 776.681 1650 731.467 1647.45 695.142C1641.32 672.093 1627.07 657.754 1638.12 669.804C1644.01 676.231 1646.76 685.364 1647.45 695.142C1654.56 721.882 1650.74 760.345 1583.8 782.927C1556.57 792.114 1497.91 733.721 1399.3 689.325C1337.1 661.325 1266.67 642.774 1108.45 725.016C996.463 783.229 817.154 644.919 660.579 725.016C439.351 838.187 385.684 689.325 308.121 689.325Z" fill="#C7CDF1"/>
</svg>
