<svg width="1450" height="1425" viewBox="0 0 1450 1425" fill="none" xmlns="http://www.w3.org/2000/svg">
<path d="M201.468 1310.87C118.698 1345.02 42.9477 1399.71 8.83902 1425C2.16889 1128.22 -7.1693 443.199 8.83902 318.566C28.8494 162.775 26.8321 -49.9814 45.933 10.5591C65.0338 71.0996 365.19 372.154 534.369 234.214C671.314 122.555 861.891 219.753 943.217 318.566C1024.62 417.476 1165.61 476.133 1368.44 345.752C1438.71 300.583 1370 377.492 1384.1 449.334C1392.44 721.9 1438.02 687.188 1438.02 819.319C1438.02 916.581 1433.42 1135.48 1412.49 1131.94C1433.94 1168.93 1482.99 1277.64 1406.63 1310.87C1372.87 1325.56 1519.3 1354.82 1406.63 1361.82C1177.88 1376.03 1228.36 1226.14 957.77 1361.82C739.642 1471.2 725.377 1188.22 422.038 1339.58C335.06 1382.98 276.42 1279.95 201.468 1310.87Z" fill="#F8DCFF"/>
</svg>
