<svg width="1487" height="720" viewBox="0 0 1487 720" fill="none" xmlns="http://www.w3.org/2000/svg">
<path d="M112.5 697.5C49 697.5 24.8333 659.5 0 629L29 0.5H1472.5C1477.5 24.3333 1472.5 587.5 1472.5 665.5C1472.5 677.392 1474.79 684.498 1477.52 688.546C1484.32 698.616 1493.83 689.759 1477.52 688.546C1466.02 687.691 1441.69 690.637 1394.5 706.7C1253.5 754.7 1145.5 652 1007 641C951.841 636.619 819 674 732 697.5C645 721 547.664 685.189 456.5 665.5C287.5 629 205.476 697.5 112.5 697.5Z" fill="#E0FFE2"/>
</svg>
