<svg width="163" height="27" viewBox="0 0 163 27" fill="none" xmlns="http://www.w3.org/2000/svg">
<g id="PAWS.PLACE">
<mask id="path-1-outside-1_1_32" maskUnits="userSpaceOnUse" x="0.689117" y="0.805908" width="163" height="26" fill="black">
<rect fill="white" x="0.689117" y="0.805908" width="163" height="26"/>
<path d="M19.2831 8.82585C19.4794 9.39288 19.5775 9.9708 19.5775 10.5596C19.5557 11.6719 19.2286 12.7078 18.5961 13.6674C17.9855 14.6051 17.2222 15.3793 16.3062 15.99C15.8046 16.3389 15.2703 16.6442 14.7033 16.9059C14.1581 17.1458 13.602 17.353 13.0349 17.5275C12.9695 17.5493 12.7405 17.6038 12.348 17.691C11.9554 17.7565 11.5301 17.8328 11.0722 17.92C10.636 17.9855 10.2434 18.0509 9.8945 18.1163C9.54556 18.1599 9.3711 18.1599 9.3711 18.1163C9.34929 18.6397 9.40381 19.174 9.53466 19.7192C9.68732 20.2427 9.72003 20.7661 9.6328 21.2895C9.54556 21.8129 9.29477 22.2709 8.8804 22.6634C8.48785 23.0778 8.02987 23.3395 7.50646 23.4485C6.96125 23.5358 6.42694 23.4485 5.90353 23.1868C5.40193 22.9469 5.02028 22.5871 4.75858 22.1073C4.60592 21.8238 4.49687 21.5185 4.43145 21.1913C4.36602 20.886 4.3115 20.5807 4.26788 20.2754C3.98437 18.0291 3.799 15.7828 3.71176 13.5365C3.64634 11.2902 3.72267 9.04394 3.94076 6.79765C3.98437 6.53595 4.01709 6.28515 4.03889 6.04525C4.08251 5.78355 4.16975 5.53275 4.3006 5.29286C4.47507 4.92211 4.73677 4.6386 5.08571 4.44232C5.45645 4.22424 5.8381 4.09339 6.23066 4.04977C7.03758 3.94073 7.84449 3.8753 8.65141 3.85349C9.48014 3.83168 10.298 3.83168 11.1049 3.85349C11.9118 3.89711 12.7078 3.98434 13.4929 4.11519C14.2998 4.22424 15.074 4.46413 15.8155 4.83488C16.6225 5.24924 17.3312 5.80536 17.9419 6.50324C18.5743 7.20111 19.0214 7.97532 19.2831 8.82585ZM12.3153 12.1626C12.6642 12.0317 12.9913 11.8682 13.2966 11.6719C13.6238 11.4756 13.8964 11.2248 14.1145 10.9195C14.2017 10.7886 14.2453 10.6796 14.2453 10.5923C14.2889 10.3961 14.2126 10.1998 14.0163 10.0035C13.7982 9.76362 13.5365 9.58915 13.2312 9.48011C12.9477 9.37107 12.6533 9.29474 12.348 9.25112C11.8246 9.18569 11.3012 9.16389 10.7777 9.18569C10.2543 9.2075 9.74184 9.24021 9.24024 9.28383C9.17482 9.28383 9.1312 9.29474 9.10939 9.31655C9.10939 9.31655 9.08758 9.36016 9.04397 9.4474C9.02216 10.0144 9.01125 10.5814 9.01125 11.1485C9.01125 11.6937 9.01125 12.2498 9.01125 12.8168C9.01125 12.8604 9.14211 12.8713 9.40381 12.8495C9.68732 12.8059 10.0035 12.7514 10.3525 12.686C10.7014 12.6205 11.0176 12.5551 11.3012 12.4897C11.6065 12.4243 11.7919 12.3807 11.8573 12.3588C11.9445 12.3152 12.0208 12.2825 12.0863 12.2607C12.1517 12.2389 12.228 12.2062 12.3153 12.1626Z"/>
<path d="M33.6303 14.1581C33.7393 15.1394 33.8265 16.1208 33.892 17.1022C33.9792 18.0836 34.0446 19.065 34.0882 20.0464C34.1319 20.548 34.1101 21.0496 34.0228 21.5512C33.9574 22.0528 33.7393 22.4998 33.3686 22.8924C33.0414 23.2195 32.6271 23.4376 32.1255 23.5467C31.6457 23.6775 31.1877 23.6775 30.7515 23.5467C30.2499 23.394 29.8247 23.1105 29.4757 22.6961C29.1268 22.3036 28.9196 21.8456 28.8542 21.3222C28.4834 21.344 28.1018 21.3549 27.7092 21.3549C27.3167 21.3549 26.935 21.3549 26.5643 21.3549C26.477 21.3767 26.3898 21.3876 26.3026 21.3876C26.2153 21.3876 26.139 21.4094 26.0736 21.453C25.9645 21.5185 25.8773 21.5948 25.8119 21.682C25.7683 21.7911 25.7137 21.9001 25.6483 22.0091C25.452 22.3799 25.1794 22.6961 24.8305 22.9578C24.5034 23.2413 24.1217 23.4158 23.6855 23.4812C23.2712 23.5685 22.8568 23.5358 22.4425 23.3831C22.0281 23.2522 21.6792 23.0342 21.3956 22.7288C21.0031 22.2927 20.7741 21.7693 20.7087 21.1586C20.6432 20.548 20.6323 19.9482 20.676 19.3594C20.785 17.5929 20.9704 15.8373 21.2321 14.0926C21.5156 12.3261 21.9081 10.5814 22.4097 8.85856C22.6496 8.00803 22.9768 7.1793 23.3911 6.37238C23.8055 5.54366 24.3943 4.9003 25.1576 4.44232C25.6592 4.137 26.1935 3.94073 26.7606 3.85349C27.3276 3.76626 27.8946 3.79897 28.4616 3.95163C29.0286 4.08248 29.5521 4.31147 30.0318 4.6386C30.5116 4.94392 30.9369 5.32557 31.3076 5.78355C31.8529 6.43781 32.2454 7.1793 32.4853 8.00803C32.747 8.83676 32.9542 9.66548 33.1069 10.4942C33.2159 11.1049 33.314 11.7155 33.4013 12.3261C33.4885 12.915 33.5648 13.5256 33.6303 14.1581ZM28.5271 16.0227C28.4834 15.6519 28.4398 15.2703 28.3962 14.8777C28.3744 14.4852 28.3417 14.1035 28.2981 13.7328L27.9055 11.3775C27.8619 11.1594 27.8183 10.9413 27.7747 10.7232C27.731 10.5051 27.6765 10.2761 27.6111 10.0362C27.6111 10.058 27.6002 10.0798 27.5784 10.1017C27.5784 10.1017 27.5784 10.1235 27.5784 10.1671C27.2731 11.1485 27.0114 12.1299 26.7933 13.1112C26.597 14.0926 26.4225 15.0958 26.2699 16.1208C27.0114 16.0554 27.7638 16.0227 28.5271 16.0227Z"/>
<path d="M54.7265 5.52185C54.8355 5.78355 54.901 6.04526 54.9228 6.30696C54.9664 6.56866 54.9991 6.84127 55.0209 7.12478C55.348 11.2466 55.2172 15.3575 54.6284 19.4575C54.5847 19.8937 54.5084 20.319 54.3994 20.7333C54.3121 21.1695 54.1595 21.573 53.9414 21.9437C53.7015 22.3799 53.3744 22.7506 52.96 23.056C52.5456 23.3831 52.0877 23.6012 51.5861 23.7102C51.0845 23.8193 50.572 23.8084 50.0486 23.6775C49.547 23.5467 49.0999 23.3068 48.7073 22.9578C48.402 22.6961 48.1403 22.3908 47.9222 22.0419C47.7041 21.6929 47.5079 21.3331 47.3334 20.9623C47.0063 20.3299 46.6791 19.7083 46.352 19.0977C46.0467 18.4871 45.7305 17.8655 45.4033 17.2331C45.098 17.7565 44.8254 18.3017 44.5855 18.8687C44.3456 19.4139 44.073 19.9482 43.7677 20.4716C43.4624 21.0169 43.1134 21.5185 42.7209 21.9764C42.3501 22.4562 41.8921 22.8488 41.3469 23.1541C40.8453 23.4158 40.3328 23.5467 39.8094 23.5467C39.286 23.5685 38.7844 23.4812 38.3046 23.285C37.8248 23.0887 37.3996 22.7943 37.0288 22.4017C36.6581 22.0091 36.3855 21.5512 36.211 21.0278C36.0583 20.5916 35.9602 20.1554 35.9166 19.7192C35.8948 19.2613 35.873 18.8033 35.8512 18.3453C35.7857 16.5134 35.7639 14.6924 35.7857 12.8823C35.8293 11.0721 35.9275 9.25112 36.0802 7.4192C36.1238 7.04845 36.1783 6.68861 36.2437 6.33967C36.3091 5.96892 36.4291 5.61999 36.6036 5.29286C36.8434 4.8785 37.1815 4.55137 37.6177 4.31147C38.0756 4.07158 38.5554 3.97344 39.057 4.01705C39.5368 4.06067 39.973 4.23514 40.3655 4.54046C40.7581 4.84578 41.0416 5.22743 41.2161 5.68541C41.3469 6.01254 41.4124 6.36148 41.4124 6.73223C41.4342 7.08116 41.4342 7.44101 41.4124 7.81175C41.3469 8.85856 41.2815 9.89447 41.2161 10.9195C41.1507 11.9445 41.0852 12.9804 41.0198 14.0272C41.3905 13.591 41.685 13.1003 41.903 12.5551C42.1211 11.9881 42.361 11.4538 42.6227 10.9522C42.8844 10.4288 43.2225 9.94899 43.6368 9.51282C44.073 9.07665 44.5746 8.83676 45.1416 8.79314C45.7741 8.74952 46.352 8.9458 46.8754 9.38197C47.3988 9.79633 47.8132 10.287 48.1185 10.8541C48.4238 11.4211 48.6855 12.0099 48.9036 12.6205C49.1435 13.2094 49.4597 13.7546 49.8523 14.2562C49.9613 12.1844 49.9286 10.1126 49.7541 8.04074C49.7105 7.62638 49.6778 7.21202 49.656 6.79765C49.6342 6.36148 49.7105 5.95802 49.885 5.58727C50.0595 5.10749 50.3648 4.71493 50.801 4.40961C51.2371 4.08248 51.706 3.90801 52.2076 3.8862C52.7092 3.86439 53.189 3.99525 53.647 4.27876C54.105 4.56227 54.443 4.93302 54.6611 5.391C54.7047 5.47823 54.7265 5.52185 54.7265 5.52185Z"/>
<path d="M70.8591 16.9387C71.0771 17.6147 71.1208 18.2581 70.9899 18.8687C70.8155 19.6974 70.4338 20.4171 69.845 21.0278C69.2561 21.6384 68.591 22.1291 67.8495 22.4998C66.9771 22.936 66.0503 23.2304 65.0689 23.3831C64.1093 23.5576 63.1388 23.6121 62.1574 23.5467C61.7649 23.5248 61.3396 23.4812 60.8816 23.4158C60.4455 23.3504 60.0202 23.2413 59.6058 23.0887C59.1915 22.936 58.8098 22.7288 58.4609 22.4671C58.1338 22.2054 57.8829 21.8674 57.7085 21.453C57.534 21.0823 57.4686 20.6897 57.5122 20.2754C57.5558 19.861 57.6867 19.4794 57.9048 19.1304C58.1228 18.7815 58.4064 18.498 58.7553 18.2799C59.126 18.0618 59.5186 17.9309 59.933 17.8873C60.3691 17.8437 60.8053 17.8873 61.2415 18.0182C61.6777 18.1272 62.1138 18.2035 62.55 18.2472C63.466 18.3562 64.3383 18.2254 65.167 17.8546C64.6218 17.4402 64.0439 17.1022 63.4332 16.8405C62.8226 16.557 62.2011 16.2626 61.5686 15.9573C60.9362 15.6519 60.3255 15.3139 59.7367 14.9432C59.1697 14.5724 58.6899 14.1035 58.2973 13.5365C57.8393 12.9041 57.5449 12.1953 57.4141 11.4102C57.305 10.6033 57.3705 9.81814 57.6103 9.05484C57.8284 8.29154 58.1883 7.60457 58.6899 6.99393C59.1915 6.36148 59.7803 5.83807 60.4564 5.42371C61.1324 5.03115 61.8521 4.73674 62.6154 4.54046C63.4005 4.34418 64.1856 4.25695 64.9707 4.27876C65.4942 4.30057 66.0176 4.36599 66.541 4.47504C67.0644 4.58408 67.566 4.75855 68.0458 4.99844C68.5256 5.26015 68.9399 5.59818 69.2888 6.01254C69.6596 6.4051 69.9213 6.86308 70.074 7.38648C70.2266 7.88808 70.2375 8.41149 70.1067 8.9567C69.9758 9.50192 69.7141 9.9599 69.3216 10.3306C69.0599 10.5705 68.7545 10.745 68.4056 10.8541C68.0785 10.9413 67.7404 10.974 67.3915 10.9522C67.0644 10.9304 66.7372 10.8541 66.4101 10.7232C66.083 10.5705 65.8104 10.3634 65.5923 10.1017C65.5051 10.0144 65.4287 9.92719 65.3633 9.83995C65.2979 9.75272 65.2106 9.68729 65.1016 9.64367C64.9271 9.55644 64.6981 9.55644 64.4146 9.64367C64.0657 9.68729 63.7168 9.77453 63.3678 9.90538C63.0407 10.0144 62.8117 10.2216 62.6808 10.5269C63.2915 10.8977 63.913 11.2357 64.5455 11.541C65.1779 11.8245 65.8104 12.1299 66.4428 12.457C67.0753 12.7623 67.6859 13.1221 68.2747 13.5365C68.8636 13.9291 69.3761 14.3979 69.8123 14.9432C70.3139 15.532 70.6628 16.1972 70.8591 16.9387Z"/>
<path d="M77.2169 23.6121C77.1296 23.6121 77.0533 23.6012 76.9879 23.5794C76.9225 23.5794 76.8461 23.5685 76.7589 23.5467C76.2137 23.4594 75.7339 23.2086 75.3195 22.7943C74.927 22.3799 74.6871 21.8892 74.5998 21.3222C74.5126 20.777 74.5998 20.2427 74.8615 19.7192C75.1451 19.1958 75.5376 18.8142 76.0392 18.5743C76.5408 18.3344 77.0751 18.269 77.6421 18.378C78.231 18.4653 78.7217 18.7051 79.1142 19.0977C79.5286 19.5121 79.7576 19.9809 79.8012 20.5044C79.8666 21.0278 79.8012 21.5185 79.6049 21.9764C79.4086 22.4344 79.0924 22.8161 78.6562 23.1214C78.2419 23.4485 77.7621 23.6121 77.2169 23.6121Z"/>
<path d="M97.1999 8.82585C97.3961 9.39288 97.4943 9.9708 97.4943 10.5596C97.4725 11.6719 97.1453 12.7078 96.5129 13.6674C95.9022 14.6051 95.1389 15.3793 94.223 15.99C93.7214 16.3389 93.1871 16.6442 92.62 16.9059C92.0748 17.1458 91.5187 17.353 90.9517 17.5275C90.8863 17.5493 90.6573 17.6038 90.2647 17.691C89.8722 17.7565 89.4469 17.8328 88.9889 17.92C88.5527 17.9855 88.1602 18.0509 87.8112 18.1163C87.4623 18.1599 87.2878 18.1599 87.2878 18.1163C87.266 18.6397 87.3205 19.174 87.4514 19.7192C87.6041 20.2427 87.6368 20.7661 87.5495 21.2895C87.4623 21.8129 87.2115 22.2709 86.7971 22.6634C86.4046 23.0778 85.9466 23.3395 85.4232 23.4485C84.878 23.5358 84.3437 23.4485 83.8203 23.1868C83.3187 22.9469 82.937 22.5871 82.6753 22.1073C82.5227 21.8238 82.4136 21.5185 82.3482 21.1913C82.2828 20.886 82.2282 20.5807 82.1846 20.2754C81.9011 18.0291 81.7157 15.7828 81.6285 13.5365C81.5631 11.2902 81.6394 9.04394 81.8575 6.79765C81.9011 6.53595 81.9338 6.28515 81.9556 6.04525C81.9993 5.78355 82.0865 5.53275 82.2173 5.29286C82.3918 4.92211 82.6535 4.6386 83.0025 4.44232C83.3732 4.22424 83.7548 4.09339 84.1474 4.04977C84.9543 3.94073 85.7612 3.8753 86.5682 3.85349C87.3969 3.83168 88.2147 3.83168 89.0216 3.85349C89.8285 3.89711 90.6246 3.98434 91.4097 4.11519C92.2166 4.22424 92.9908 4.46413 93.7323 4.83488C94.5392 5.24924 95.248 5.80536 95.8586 6.50324C96.4911 7.20111 96.9381 7.97532 97.1999 8.82585ZM90.232 12.1626C90.5809 12.0317 90.9081 11.8682 91.2134 11.6719C91.5405 11.4756 91.8131 11.2248 92.0312 10.9195C92.1184 10.7886 92.1621 10.6796 92.1621 10.5923C92.2057 10.3961 92.1293 10.1998 91.9331 10.0035C91.715 9.76362 91.4533 9.58915 91.148 9.48011C90.8644 9.37107 90.57 9.29474 90.2647 9.25112C89.7413 9.18569 89.2179 9.16389 88.6945 9.18569C88.1711 9.2075 87.6586 9.24021 87.157 9.28383C87.0916 9.28383 87.0479 9.29474 87.0261 9.31655C87.0261 9.31655 87.0043 9.36016 86.9607 9.4474C86.9389 10.0144 86.928 10.5814 86.928 11.1485C86.928 11.6937 86.928 12.2498 86.928 12.8168C86.928 12.8604 87.0589 12.8713 87.3206 12.8495C87.6041 12.8059 87.9203 12.7514 88.2692 12.686C88.6182 12.6205 88.9344 12.5551 89.2179 12.4897C89.5232 12.4243 89.7086 12.3807 89.774 12.3588C89.8613 12.3152 89.9376 12.2825 90.003 12.2607C90.0684 12.2389 90.1448 12.2062 90.232 12.1626Z"/>
<path d="M112.882 18.9668C113.449 19.4903 113.711 20.1227 113.667 20.8642C113.667 21.3004 113.558 21.7147 113.34 22.1073C113.122 22.4998 112.827 22.8161 112.457 23.056C112.02 23.3177 111.541 23.4485 111.017 23.4485C110.494 23.4703 109.981 23.4812 109.48 23.4812C108.542 23.4812 107.604 23.4703 106.666 23.4485C105.729 23.4485 104.78 23.4485 103.82 23.4485C103.58 23.4485 103.33 23.4376 103.068 23.4158C102.806 23.394 102.555 23.3286 102.316 23.2195C102.054 23.1105 101.825 22.936 101.629 22.6961C101.432 22.4562 101.28 22.2054 101.171 21.9437C101.062 21.6602 100.974 21.3658 100.909 21.0605C100.843 20.777 100.789 20.4825 100.745 20.1772C100.44 17.9964 100.255 15.8264 100.189 13.6674C100.146 11.4865 100.211 9.30564 100.386 7.12478C100.407 6.86308 100.429 6.60137 100.451 6.33967C100.495 6.07797 100.571 5.82717 100.68 5.58727C100.876 5.08568 101.203 4.69312 101.661 4.40961C102.119 4.10429 102.61 3.96253 103.133 3.98434C103.657 3.98434 104.137 4.14791 104.573 4.47504C105.031 4.78036 105.347 5.18382 105.521 5.68541C105.652 6.05616 105.718 6.43781 105.718 6.83036C105.718 7.22292 105.696 7.61547 105.652 8.00803C105.347 11.4102 105.412 14.8014 105.849 18.1817C106.525 18.1599 107.19 18.149 107.844 18.149C108.52 18.149 109.196 18.149 109.872 18.149C110.265 18.149 110.657 18.1599 111.05 18.1817C111.442 18.2035 111.824 18.3017 112.195 18.4762C112.457 18.607 112.686 18.7706 112.882 18.9668Z"/>
<path d="M127.999 14.1581C128.108 15.1394 128.196 16.1208 128.261 17.1022C128.348 18.0836 128.414 19.065 128.457 20.0464C128.501 20.548 128.479 21.0496 128.392 21.5512C128.326 22.0528 128.108 22.4998 127.738 22.8924C127.41 23.2195 126.996 23.4376 126.494 23.5467C126.015 23.6775 125.557 23.6775 125.121 23.5467C124.619 23.394 124.194 23.1105 123.845 22.6961C123.496 22.3036 123.289 21.8456 123.223 21.3222C122.852 21.344 122.471 21.3549 122.078 21.3549C121.686 21.3549 121.304 21.3549 120.933 21.3549C120.846 21.3767 120.759 21.3876 120.672 21.3876C120.584 21.3876 120.508 21.4094 120.443 21.453C120.334 21.5185 120.246 21.5948 120.181 21.682C120.137 21.7911 120.083 21.9001 120.017 22.0091C119.821 22.3799 119.548 22.6961 119.2 22.9578C118.872 23.2413 118.491 23.4158 118.055 23.4812C117.64 23.5685 117.226 23.5358 116.811 23.3831C116.397 23.2522 116.048 23.0342 115.765 22.7288C115.372 22.2927 115.143 21.7693 115.078 21.1586C115.012 20.548 115.001 19.9482 115.045 19.3594C115.154 17.5929 115.339 15.8373 115.601 14.0926C115.885 12.3261 116.277 10.5814 116.779 8.85856C117.019 8.00803 117.346 7.1793 117.76 6.37238C118.175 5.54366 118.763 4.9003 119.527 4.44232C120.028 4.137 120.563 3.94073 121.13 3.85349C121.697 3.76626 122.264 3.79897 122.831 3.95163C123.398 4.08248 123.921 4.31147 124.401 4.6386C124.881 4.94392 125.306 5.32557 125.677 5.78355C126.222 6.43781 126.614 7.1793 126.854 8.00803C127.116 8.83676 127.323 9.66548 127.476 10.4942C127.585 11.1049 127.683 11.7155 127.77 12.3261C127.858 12.915 127.934 13.5256 127.999 14.1581ZM122.896 16.0227C122.852 15.6519 122.809 15.2703 122.765 14.8777C122.743 14.4852 122.711 14.1035 122.667 13.7328L122.275 11.3775C122.231 11.1594 122.187 10.9413 122.144 10.7232C122.1 10.5051 122.046 10.2761 121.98 10.0362C121.98 10.058 121.969 10.0798 121.947 10.1017C121.947 10.1017 121.947 10.1235 121.947 10.1671C121.642 11.1485 121.38 12.1299 121.162 13.1112C120.966 14.0926 120.792 15.0958 120.639 16.1208C121.38 16.0554 122.133 16.0227 122.896 16.0227Z"/>
<path d="M144.516 18.2472C144.756 18.836 144.767 19.4248 144.548 20.0137C144.33 20.6025 143.981 21.115 143.502 21.5512C142.869 22.0964 142.182 22.5435 141.441 22.8924C140.699 23.2631 139.914 23.503 139.085 23.6121C138.126 23.7429 137.166 23.6884 136.207 23.4485C135.269 23.2304 134.418 22.8379 133.655 22.2709C133.066 21.8347 132.554 21.3113 132.118 20.7006C131.681 20.1118 131.322 19.4684 131.038 18.7706C130.755 18.0727 130.547 17.3639 130.416 16.6442C130.286 15.9246 130.198 15.1831 130.155 14.4198C130.111 13.3075 130.187 12.2062 130.384 11.1158C130.58 10.0253 130.951 8.98942 131.496 8.00803C132.041 7.02664 132.75 6.17611 133.622 5.45642C134.516 4.73674 135.52 4.28966 136.632 4.11519C137.766 3.94073 138.878 4.08248 139.969 4.54046C141.081 4.99844 141.975 5.70722 142.651 6.6668C142.891 6.97212 143.076 7.32106 143.207 7.71361C143.36 8.08436 143.425 8.46601 143.403 8.85856C143.382 9.42559 143.185 9.94899 142.815 10.4288C142.444 10.9086 141.975 11.2139 141.408 11.3447C140.841 11.4756 140.285 11.4211 139.74 11.1812C139.194 10.9413 138.78 10.5705 138.497 10.0689C138.431 9.9599 138.366 9.86176 138.3 9.77453C138.257 9.66548 138.191 9.57825 138.104 9.51282C137.908 9.36016 137.679 9.31654 137.417 9.38197C137.155 9.4474 136.937 9.56734 136.763 9.74181C136.392 10.0471 136.109 10.4397 135.912 10.9195C135.738 11.3775 135.618 11.8463 135.552 12.3261C135.356 13.5474 135.411 14.8014 135.716 16.0881C135.825 16.5025 135.978 16.895 136.174 17.2658C136.37 17.6365 136.654 17.9309 137.024 18.149C137.33 18.3235 137.679 18.4107 138.071 18.4107C138.464 18.3889 138.824 18.2908 139.151 18.1163C139.478 17.9418 139.772 17.7456 140.034 17.5275C140.318 17.2876 140.623 17.0804 140.95 16.9059C141.495 16.6442 142.073 16.5897 142.684 16.7424C143.294 16.8732 143.785 17.1785 144.156 17.6583C144.221 17.7674 144.287 17.8655 144.352 17.9528C144.418 18.04 144.472 18.1381 144.516 18.2472Z"/>
<path d="M159.229 19.0323C159.6 19.403 159.829 19.8065 159.916 20.2427C160.047 20.7006 160.025 21.1804 159.85 21.682C159.698 22.2054 159.436 22.6198 159.065 22.9251C158.695 23.2304 158.258 23.4049 157.757 23.4485C157.277 23.5139 156.808 23.5576 156.35 23.5794C155.434 23.6012 154.518 23.6121 153.602 23.6121C152.686 23.6339 151.77 23.6448 150.854 23.6448C150.571 23.6666 150.287 23.6666 150.004 23.6448C149.742 23.6448 149.47 23.5903 149.186 23.4812C148.881 23.3722 148.597 23.2086 148.335 22.9905C148.096 22.7724 147.91 22.5107 147.779 22.2054C147.67 22.0091 147.594 21.802 147.55 21.5839C147.529 21.3658 147.496 21.1368 147.452 20.8969C147.147 18.6506 146.951 16.4043 146.863 14.1581C146.776 11.89 146.831 9.62187 147.027 7.35377C147.071 6.9176 147.136 6.48143 147.223 6.04525C147.332 5.60908 147.55 5.23834 147.877 4.93302C148.117 4.69312 148.401 4.52956 148.728 4.44232C149.077 4.33328 149.426 4.25695 149.775 4.21333C151.934 3.84259 154.137 3.74445 156.383 3.91892C156.645 3.94073 156.906 3.97344 157.168 4.01705C157.451 4.03886 157.724 4.10429 157.986 4.21333C158.487 4.43142 158.88 4.80217 159.163 5.32557C159.469 5.82717 159.589 6.35058 159.523 6.89579C159.458 7.46281 159.229 7.96441 158.836 8.40058C158.444 8.81495 157.975 9.07665 157.43 9.18569C157.146 9.22931 156.863 9.25112 156.579 9.25112C156.317 9.25112 156.045 9.22931 155.761 9.18569C155.172 9.14208 154.573 9.13117 153.962 9.15298C153.373 9.15298 152.784 9.17479 152.196 9.21841C152.174 9.58915 152.163 9.9599 152.163 10.3306C152.163 10.7014 152.152 11.0721 152.13 11.4429C152.741 11.4865 153.351 11.4756 153.962 11.4102C154.573 11.3229 155.162 11.3993 155.729 11.6392C156.208 11.8572 156.59 12.2062 156.874 12.686C157.179 13.1658 157.321 13.6674 157.299 14.1908C157.255 14.736 157.059 15.2267 156.71 15.6628C156.361 16.099 155.936 16.4043 155.434 16.5788C154.933 16.7315 154.409 16.7751 153.864 16.7097C153.341 16.6442 152.828 16.6551 152.326 16.7424C152.348 17.0041 152.37 17.2658 152.392 17.5275C152.414 17.7892 152.435 18.0509 152.457 18.3126C153.155 18.3126 153.831 18.3126 154.485 18.3126C155.162 18.2908 155.849 18.269 156.546 18.2472C156.83 18.2472 157.103 18.2581 157.364 18.2799C157.648 18.2799 157.92 18.3235 158.182 18.4107C158.553 18.498 158.902 18.7051 159.229 19.0323Z"/>
</mask>
<path d="M19.2831 8.82585C19.4794 9.39288 19.5775 9.9708 19.5775 10.5596C19.5557 11.6719 19.2286 12.7078 18.5961 13.6674C17.9855 14.6051 17.2222 15.3793 16.3062 15.99C15.8046 16.3389 15.2703 16.6442 14.7033 16.9059C14.1581 17.1458 13.602 17.353 13.0349 17.5275C12.9695 17.5493 12.7405 17.6038 12.348 17.691C11.9554 17.7565 11.5301 17.8328 11.0722 17.92C10.636 17.9855 10.2434 18.0509 9.8945 18.1163C9.54556 18.1599 9.3711 18.1599 9.3711 18.1163C9.34929 18.6397 9.40381 19.174 9.53466 19.7192C9.68732 20.2427 9.72003 20.7661 9.6328 21.2895C9.54556 21.8129 9.29477 22.2709 8.8804 22.6634C8.48785 23.0778 8.02987 23.3395 7.50646 23.4485C6.96125 23.5358 6.42694 23.4485 5.90353 23.1868C5.40193 22.9469 5.02028 22.5871 4.75858 22.1073C4.60592 21.8238 4.49687 21.5185 4.43145 21.1913C4.36602 20.886 4.3115 20.5807 4.26788 20.2754C3.98437 18.0291 3.799 15.7828 3.71176 13.5365C3.64634 11.2902 3.72267 9.04394 3.94076 6.79765C3.98437 6.53595 4.01709 6.28515 4.03889 6.04525C4.08251 5.78355 4.16975 5.53275 4.3006 5.29286C4.47507 4.92211 4.73677 4.6386 5.08571 4.44232C5.45645 4.22424 5.8381 4.09339 6.23066 4.04977C7.03758 3.94073 7.84449 3.8753 8.65141 3.85349C9.48014 3.83168 10.298 3.83168 11.1049 3.85349C11.9118 3.89711 12.7078 3.98434 13.4929 4.11519C14.2998 4.22424 15.074 4.46413 15.8155 4.83488C16.6225 5.24924 17.3312 5.80536 17.9419 6.50324C18.5743 7.20111 19.0214 7.97532 19.2831 8.82585ZM12.3153 12.1626C12.6642 12.0317 12.9913 11.8682 13.2966 11.6719C13.6238 11.4756 13.8964 11.2248 14.1145 10.9195C14.2017 10.7886 14.2453 10.6796 14.2453 10.5923C14.2889 10.3961 14.2126 10.1998 14.0163 10.0035C13.7982 9.76362 13.5365 9.58915 13.2312 9.48011C12.9477 9.37107 12.6533 9.29474 12.348 9.25112C11.8246 9.18569 11.3012 9.16389 10.7777 9.18569C10.2543 9.2075 9.74184 9.24021 9.24024 9.28383C9.17482 9.28383 9.1312 9.29474 9.10939 9.31655C9.10939 9.31655 9.08758 9.36016 9.04397 9.4474C9.02216 10.0144 9.01125 10.5814 9.01125 11.1485C9.01125 11.6937 9.01125 12.2498 9.01125 12.8168C9.01125 12.8604 9.14211 12.8713 9.40381 12.8495C9.68732 12.8059 10.0035 12.7514 10.3525 12.686C10.7014 12.6205 11.0176 12.5551 11.3012 12.4897C11.6065 12.4243 11.7919 12.3807 11.8573 12.3588C11.9445 12.3152 12.0208 12.2825 12.0863 12.2607C12.1517 12.2389 12.228 12.2062 12.3153 12.1626Z" fill="#190020"/>
<path d="M33.6303 14.1581C33.7393 15.1394 33.8265 16.1208 33.892 17.1022C33.9792 18.0836 34.0446 19.065 34.0882 20.0464C34.1319 20.548 34.1101 21.0496 34.0228 21.5512C33.9574 22.0528 33.7393 22.4998 33.3686 22.8924C33.0414 23.2195 32.6271 23.4376 32.1255 23.5467C31.6457 23.6775 31.1877 23.6775 30.7515 23.5467C30.2499 23.394 29.8247 23.1105 29.4757 22.6961C29.1268 22.3036 28.9196 21.8456 28.8542 21.3222C28.4834 21.344 28.1018 21.3549 27.7092 21.3549C27.3167 21.3549 26.935 21.3549 26.5643 21.3549C26.477 21.3767 26.3898 21.3876 26.3026 21.3876C26.2153 21.3876 26.139 21.4094 26.0736 21.453C25.9645 21.5185 25.8773 21.5948 25.8119 21.682C25.7683 21.7911 25.7137 21.9001 25.6483 22.0091C25.452 22.3799 25.1794 22.6961 24.8305 22.9578C24.5034 23.2413 24.1217 23.4158 23.6855 23.4812C23.2712 23.5685 22.8568 23.5358 22.4425 23.3831C22.0281 23.2522 21.6792 23.0342 21.3956 22.7288C21.0031 22.2927 20.7741 21.7693 20.7087 21.1586C20.6432 20.548 20.6323 19.9482 20.676 19.3594C20.785 17.5929 20.9704 15.8373 21.2321 14.0926C21.5156 12.3261 21.9081 10.5814 22.4097 8.85856C22.6496 8.00803 22.9768 7.1793 23.3911 6.37238C23.8055 5.54366 24.3943 4.9003 25.1576 4.44232C25.6592 4.137 26.1935 3.94073 26.7606 3.85349C27.3276 3.76626 27.8946 3.79897 28.4616 3.95163C29.0286 4.08248 29.5521 4.31147 30.0318 4.6386C30.5116 4.94392 30.9369 5.32557 31.3076 5.78355C31.8529 6.43781 32.2454 7.1793 32.4853 8.00803C32.747 8.83676 32.9542 9.66548 33.1069 10.4942C33.2159 11.1049 33.314 11.7155 33.4013 12.3261C33.4885 12.915 33.5648 13.5256 33.6303 14.1581ZM28.5271 16.0227C28.4834 15.6519 28.4398 15.2703 28.3962 14.8777C28.3744 14.4852 28.3417 14.1035 28.2981 13.7328L27.9055 11.3775C27.8619 11.1594 27.8183 10.9413 27.7747 10.7232C27.731 10.5051 27.6765 10.2761 27.6111 10.0362C27.6111 10.058 27.6002 10.0798 27.5784 10.1017C27.5784 10.1017 27.5784 10.1235 27.5784 10.1671C27.2731 11.1485 27.0114 12.1299 26.7933 13.1112C26.597 14.0926 26.4225 15.0958 26.2699 16.1208C27.0114 16.0554 27.7638 16.0227 28.5271 16.0227Z" fill="#190020"/>
<path d="M54.7265 5.52185C54.8355 5.78355 54.901 6.04526 54.9228 6.30696C54.9664 6.56866 54.9991 6.84127 55.0209 7.12478C55.348 11.2466 55.2172 15.3575 54.6284 19.4575C54.5847 19.8937 54.5084 20.319 54.3994 20.7333C54.3121 21.1695 54.1595 21.573 53.9414 21.9437C53.7015 22.3799 53.3744 22.7506 52.96 23.056C52.5456 23.3831 52.0877 23.6012 51.5861 23.7102C51.0845 23.8193 50.572 23.8084 50.0486 23.6775C49.547 23.5467 49.0999 23.3068 48.7073 22.9578C48.402 22.6961 48.1403 22.3908 47.9222 22.0419C47.7041 21.6929 47.5079 21.3331 47.3334 20.9623C47.0063 20.3299 46.6791 19.7083 46.352 19.0977C46.0467 18.4871 45.7305 17.8655 45.4033 17.2331C45.098 17.7565 44.8254 18.3017 44.5855 18.8687C44.3456 19.4139 44.073 19.9482 43.7677 20.4716C43.4624 21.0169 43.1134 21.5185 42.7209 21.9764C42.3501 22.4562 41.8921 22.8488 41.3469 23.1541C40.8453 23.4158 40.3328 23.5467 39.8094 23.5467C39.286 23.5685 38.7844 23.4812 38.3046 23.285C37.8248 23.0887 37.3996 22.7943 37.0288 22.4017C36.6581 22.0091 36.3855 21.5512 36.211 21.0278C36.0583 20.5916 35.9602 20.1554 35.9166 19.7192C35.8948 19.2613 35.873 18.8033 35.8512 18.3453C35.7857 16.5134 35.7639 14.6924 35.7857 12.8823C35.8293 11.0721 35.9275 9.25112 36.0802 7.4192C36.1238 7.04845 36.1783 6.68861 36.2437 6.33967C36.3091 5.96892 36.4291 5.61999 36.6036 5.29286C36.8434 4.8785 37.1815 4.55137 37.6177 4.31147C38.0756 4.07158 38.5554 3.97344 39.057 4.01705C39.5368 4.06067 39.973 4.23514 40.3655 4.54046C40.7581 4.84578 41.0416 5.22743 41.2161 5.68541C41.3469 6.01254 41.4124 6.36148 41.4124 6.73223C41.4342 7.08116 41.4342 7.44101 41.4124 7.81175C41.3469 8.85856 41.2815 9.89447 41.2161 10.9195C41.1507 11.9445 41.0852 12.9804 41.0198 14.0272C41.3905 13.591 41.685 13.1003 41.903 12.5551C42.1211 11.9881 42.361 11.4538 42.6227 10.9522C42.8844 10.4288 43.2225 9.94899 43.6368 9.51282C44.073 9.07665 44.5746 8.83676 45.1416 8.79314C45.7741 8.74952 46.352 8.9458 46.8754 9.38197C47.3988 9.79633 47.8132 10.287 48.1185 10.8541C48.4238 11.4211 48.6855 12.0099 48.9036 12.6205C49.1435 13.2094 49.4597 13.7546 49.8523 14.2562C49.9613 12.1844 49.9286 10.1126 49.7541 8.04074C49.7105 7.62638 49.6778 7.21202 49.656 6.79765C49.6342 6.36148 49.7105 5.95802 49.885 5.58727C50.0595 5.10749 50.3648 4.71493 50.801 4.40961C51.2371 4.08248 51.706 3.90801 52.2076 3.8862C52.7092 3.86439 53.189 3.99525 53.647 4.27876C54.105 4.56227 54.443 4.93302 54.6611 5.391C54.7047 5.47823 54.7265 5.52185 54.7265 5.52185Z" fill="#190020"/>
<path d="M70.8591 16.9387C71.0771 17.6147 71.1208 18.2581 70.9899 18.8687C70.8155 19.6974 70.4338 20.4171 69.845 21.0278C69.2561 21.6384 68.591 22.1291 67.8495 22.4998C66.9771 22.936 66.0503 23.2304 65.0689 23.3831C64.1093 23.5576 63.1388 23.6121 62.1574 23.5467C61.7649 23.5248 61.3396 23.4812 60.8816 23.4158C60.4455 23.3504 60.0202 23.2413 59.6058 23.0887C59.1915 22.936 58.8098 22.7288 58.4609 22.4671C58.1338 22.2054 57.8829 21.8674 57.7085 21.453C57.534 21.0823 57.4686 20.6897 57.5122 20.2754C57.5558 19.861 57.6867 19.4794 57.9048 19.1304C58.1228 18.7815 58.4064 18.498 58.7553 18.2799C59.126 18.0618 59.5186 17.9309 59.933 17.8873C60.3691 17.8437 60.8053 17.8873 61.2415 18.0182C61.6777 18.1272 62.1138 18.2035 62.55 18.2472C63.466 18.3562 64.3383 18.2254 65.167 17.8546C64.6218 17.4402 64.0439 17.1022 63.4332 16.8405C62.8226 16.557 62.2011 16.2626 61.5686 15.9573C60.9362 15.6519 60.3255 15.3139 59.7367 14.9432C59.1697 14.5724 58.6899 14.1035 58.2973 13.5365C57.8393 12.9041 57.5449 12.1953 57.4141 11.4102C57.305 10.6033 57.3705 9.81814 57.6103 9.05484C57.8284 8.29154 58.1883 7.60457 58.6899 6.99393C59.1915 6.36148 59.7803 5.83807 60.4564 5.42371C61.1324 5.03115 61.8521 4.73674 62.6154 4.54046C63.4005 4.34418 64.1856 4.25695 64.9707 4.27876C65.4942 4.30057 66.0176 4.36599 66.541 4.47504C67.0644 4.58408 67.566 4.75855 68.0458 4.99844C68.5256 5.26015 68.9399 5.59818 69.2888 6.01254C69.6596 6.4051 69.9213 6.86308 70.074 7.38648C70.2266 7.88808 70.2375 8.41149 70.1067 8.9567C69.9758 9.50192 69.7141 9.9599 69.3216 10.3306C69.0599 10.5705 68.7545 10.745 68.4056 10.8541C68.0785 10.9413 67.7404 10.974 67.3915 10.9522C67.0644 10.9304 66.7372 10.8541 66.4101 10.7232C66.083 10.5705 65.8104 10.3634 65.5923 10.1017C65.5051 10.0144 65.4287 9.92719 65.3633 9.83995C65.2979 9.75272 65.2106 9.68729 65.1016 9.64367C64.9271 9.55644 64.6981 9.55644 64.4146 9.64367C64.0657 9.68729 63.7168 9.77453 63.3678 9.90538C63.0407 10.0144 62.8117 10.2216 62.6808 10.5269C63.2915 10.8977 63.913 11.2357 64.5455 11.541C65.1779 11.8245 65.8104 12.1299 66.4428 12.457C67.0753 12.7623 67.6859 13.1221 68.2747 13.5365C68.8636 13.9291 69.3761 14.3979 69.8123 14.9432C70.3139 15.532 70.6628 16.1972 70.8591 16.9387Z" fill="#190020"/>
<path d="M77.2169 23.6121C77.1296 23.6121 77.0533 23.6012 76.9879 23.5794C76.9225 23.5794 76.8461 23.5685 76.7589 23.5467C76.2137 23.4594 75.7339 23.2086 75.3195 22.7943C74.927 22.3799 74.6871 21.8892 74.5998 21.3222C74.5126 20.777 74.5998 20.2427 74.8615 19.7192C75.1451 19.1958 75.5376 18.8142 76.0392 18.5743C76.5408 18.3344 77.0751 18.269 77.6421 18.378C78.231 18.4653 78.7217 18.7051 79.1142 19.0977C79.5286 19.5121 79.7576 19.9809 79.8012 20.5044C79.8666 21.0278 79.8012 21.5185 79.6049 21.9764C79.4086 22.4344 79.0924 22.8161 78.6562 23.1214C78.2419 23.4485 77.7621 23.6121 77.2169 23.6121Z" fill="#190020"/>
<path d="M97.1999 8.82585C97.3961 9.39288 97.4943 9.9708 97.4943 10.5596C97.4725 11.6719 97.1453 12.7078 96.5129 13.6674C95.9022 14.6051 95.1389 15.3793 94.223 15.99C93.7214 16.3389 93.1871 16.6442 92.62 16.9059C92.0748 17.1458 91.5187 17.353 90.9517 17.5275C90.8863 17.5493 90.6573 17.6038 90.2647 17.691C89.8722 17.7565 89.4469 17.8328 88.9889 17.92C88.5527 17.9855 88.1602 18.0509 87.8112 18.1163C87.4623 18.1599 87.2878 18.1599 87.2878 18.1163C87.266 18.6397 87.3205 19.174 87.4514 19.7192C87.6041 20.2427 87.6368 20.7661 87.5495 21.2895C87.4623 21.8129 87.2115 22.2709 86.7971 22.6634C86.4046 23.0778 85.9466 23.3395 85.4232 23.4485C84.878 23.5358 84.3437 23.4485 83.8203 23.1868C83.3187 22.9469 82.937 22.5871 82.6753 22.1073C82.5227 21.8238 82.4136 21.5185 82.3482 21.1913C82.2828 20.886 82.2282 20.5807 82.1846 20.2754C81.9011 18.0291 81.7157 15.7828 81.6285 13.5365C81.5631 11.2902 81.6394 9.04394 81.8575 6.79765C81.9011 6.53595 81.9338 6.28515 81.9556 6.04525C81.9993 5.78355 82.0865 5.53275 82.2173 5.29286C82.3918 4.92211 82.6535 4.6386 83.0025 4.44232C83.3732 4.22424 83.7548 4.09339 84.1474 4.04977C84.9543 3.94073 85.7612 3.8753 86.5682 3.85349C87.3969 3.83168 88.2147 3.83168 89.0216 3.85349C89.8285 3.89711 90.6246 3.98434 91.4097 4.11519C92.2166 4.22424 92.9908 4.46413 93.7323 4.83488C94.5392 5.24924 95.248 5.80536 95.8586 6.50324C96.4911 7.20111 96.9381 7.97532 97.1999 8.82585ZM90.232 12.1626C90.5809 12.0317 90.9081 11.8682 91.2134 11.6719C91.5405 11.4756 91.8131 11.2248 92.0312 10.9195C92.1184 10.7886 92.1621 10.6796 92.1621 10.5923C92.2057 10.3961 92.1293 10.1998 91.9331 10.0035C91.715 9.76362 91.4533 9.58915 91.148 9.48011C90.8644 9.37107 90.57 9.29474 90.2647 9.25112C89.7413 9.18569 89.2179 9.16389 88.6945 9.18569C88.1711 9.2075 87.6586 9.24021 87.157 9.28383C87.0916 9.28383 87.0479 9.29474 87.0261 9.31655C87.0261 9.31655 87.0043 9.36016 86.9607 9.4474C86.9389 10.0144 86.928 10.5814 86.928 11.1485C86.928 11.6937 86.928 12.2498 86.928 12.8168C86.928 12.8604 87.0589 12.8713 87.3206 12.8495C87.6041 12.8059 87.9203 12.7514 88.2692 12.686C88.6182 12.6205 88.9344 12.5551 89.2179 12.4897C89.5232 12.4243 89.7086 12.3807 89.774 12.3588C89.8613 12.3152 89.9376 12.2825 90.003 12.2607C90.0684 12.2389 90.1448 12.2062 90.232 12.1626Z" fill="#190020"/>
<path d="M112.882 18.9668C113.449 19.4903 113.711 20.1227 113.667 20.8642C113.667 21.3004 113.558 21.7147 113.34 22.1073C113.122 22.4998 112.827 22.8161 112.457 23.056C112.02 23.3177 111.541 23.4485 111.017 23.4485C110.494 23.4703 109.981 23.4812 109.48 23.4812C108.542 23.4812 107.604 23.4703 106.666 23.4485C105.729 23.4485 104.78 23.4485 103.82 23.4485C103.58 23.4485 103.33 23.4376 103.068 23.4158C102.806 23.394 102.555 23.3286 102.316 23.2195C102.054 23.1105 101.825 22.936 101.629 22.6961C101.432 22.4562 101.28 22.2054 101.171 21.9437C101.062 21.6602 100.974 21.3658 100.909 21.0605C100.843 20.777 100.789 20.4825 100.745 20.1772C100.44 17.9964 100.255 15.8264 100.189 13.6674C100.146 11.4865 100.211 9.30564 100.386 7.12478C100.407 6.86308 100.429 6.60137 100.451 6.33967C100.495 6.07797 100.571 5.82717 100.68 5.58727C100.876 5.08568 101.203 4.69312 101.661 4.40961C102.119 4.10429 102.61 3.96253 103.133 3.98434C103.657 3.98434 104.137 4.14791 104.573 4.47504C105.031 4.78036 105.347 5.18382 105.521 5.68541C105.652 6.05616 105.718 6.43781 105.718 6.83036C105.718 7.22292 105.696 7.61547 105.652 8.00803C105.347 11.4102 105.412 14.8014 105.849 18.1817C106.525 18.1599 107.19 18.149 107.844 18.149C108.52 18.149 109.196 18.149 109.872 18.149C110.265 18.149 110.657 18.1599 111.05 18.1817C111.442 18.2035 111.824 18.3017 112.195 18.4762C112.457 18.607 112.686 18.7706 112.882 18.9668Z" fill="#190020"/>
<path d="M127.999 14.1581C128.108 15.1394 128.196 16.1208 128.261 17.1022C128.348 18.0836 128.414 19.065 128.457 20.0464C128.501 20.548 128.479 21.0496 128.392 21.5512C128.326 22.0528 128.108 22.4998 127.738 22.8924C127.41 23.2195 126.996 23.4376 126.494 23.5467C126.015 23.6775 125.557 23.6775 125.121 23.5467C124.619 23.394 124.194 23.1105 123.845 22.6961C123.496 22.3036 123.289 21.8456 123.223 21.3222C122.852 21.344 122.471 21.3549 122.078 21.3549C121.686 21.3549 121.304 21.3549 120.933 21.3549C120.846 21.3767 120.759 21.3876 120.672 21.3876C120.584 21.3876 120.508 21.4094 120.443 21.453C120.334 21.5185 120.246 21.5948 120.181 21.682C120.137 21.7911 120.083 21.9001 120.017 22.0091C119.821 22.3799 119.548 22.6961 119.2 22.9578C118.872 23.2413 118.491 23.4158 118.055 23.4812C117.64 23.5685 117.226 23.5358 116.811 23.3831C116.397 23.2522 116.048 23.0342 115.765 22.7288C115.372 22.2927 115.143 21.7693 115.078 21.1586C115.012 20.548 115.001 19.9482 115.045 19.3594C115.154 17.5929 115.339 15.8373 115.601 14.0926C115.885 12.3261 116.277 10.5814 116.779 8.85856C117.019 8.00803 117.346 7.1793 117.76 6.37238C118.175 5.54366 118.763 4.9003 119.527 4.44232C120.028 4.137 120.563 3.94073 121.13 3.85349C121.697 3.76626 122.264 3.79897 122.831 3.95163C123.398 4.08248 123.921 4.31147 124.401 4.6386C124.881 4.94392 125.306 5.32557 125.677 5.78355C126.222 6.43781 126.614 7.1793 126.854 8.00803C127.116 8.83676 127.323 9.66548 127.476 10.4942C127.585 11.1049 127.683 11.7155 127.77 12.3261C127.858 12.915 127.934 13.5256 127.999 14.1581ZM122.896 16.0227C122.852 15.6519 122.809 15.2703 122.765 14.8777C122.743 14.4852 122.711 14.1035 122.667 13.7328L122.275 11.3775C122.231 11.1594 122.187 10.9413 122.144 10.7232C122.1 10.5051 122.046 10.2761 121.98 10.0362C121.98 10.058 121.969 10.0798 121.947 10.1017C121.947 10.1017 121.947 10.1235 121.947 10.1671C121.642 11.1485 121.38 12.1299 121.162 13.1112C120.966 14.0926 120.792 15.0958 120.639 16.1208C121.38 16.0554 122.133 16.0227 122.896 16.0227Z" fill="#190020"/>
<path d="M144.516 18.2472C144.756 18.836 144.767 19.4248 144.548 20.0137C144.33 20.6025 143.981 21.115 143.502 21.5512C142.869 22.0964 142.182 22.5435 141.441 22.8924C140.699 23.2631 139.914 23.503 139.085 23.6121C138.126 23.7429 137.166 23.6884 136.207 23.4485C135.269 23.2304 134.418 22.8379 133.655 22.2709C133.066 21.8347 132.554 21.3113 132.118 20.7006C131.681 20.1118 131.322 19.4684 131.038 18.7706C130.755 18.0727 130.547 17.3639 130.416 16.6442C130.286 15.9246 130.198 15.1831 130.155 14.4198C130.111 13.3075 130.187 12.2062 130.384 11.1158C130.58 10.0253 130.951 8.98942 131.496 8.00803C132.041 7.02664 132.75 6.17611 133.622 5.45642C134.516 4.73674 135.52 4.28966 136.632 4.11519C137.766 3.94073 138.878 4.08248 139.969 4.54046C141.081 4.99844 141.975 5.70722 142.651 6.6668C142.891 6.97212 143.076 7.32106 143.207 7.71361C143.36 8.08436 143.425 8.46601 143.403 8.85856C143.382 9.42559 143.185 9.94899 142.815 10.4288C142.444 10.9086 141.975 11.2139 141.408 11.3447C140.841 11.4756 140.285 11.4211 139.74 11.1812C139.194 10.9413 138.78 10.5705 138.497 10.0689C138.431 9.9599 138.366 9.86176 138.3 9.77453C138.257 9.66548 138.191 9.57825 138.104 9.51282C137.908 9.36016 137.679 9.31654 137.417 9.38197C137.155 9.4474 136.937 9.56734 136.763 9.74181C136.392 10.0471 136.109 10.4397 135.912 10.9195C135.738 11.3775 135.618 11.8463 135.552 12.3261C135.356 13.5474 135.411 14.8014 135.716 16.0881C135.825 16.5025 135.978 16.895 136.174 17.2658C136.37 17.6365 136.654 17.9309 137.024 18.149C137.33 18.3235 137.679 18.4107 138.071 18.4107C138.464 18.3889 138.824 18.2908 139.151 18.1163C139.478 17.9418 139.772 17.7456 140.034 17.5275C140.318 17.2876 140.623 17.0804 140.95 16.9059C141.495 16.6442 142.073 16.5897 142.684 16.7424C143.294 16.8732 143.785 17.1785 144.156 17.6583C144.221 17.7674 144.287 17.8655 144.352 17.9528C144.418 18.04 144.472 18.1381 144.516 18.2472Z" fill="#190020"/>
<path d="M159.229 19.0323C159.6 19.403 159.829 19.8065 159.916 20.2427C160.047 20.7006 160.025 21.1804 159.85 21.682C159.698 22.2054 159.436 22.6198 159.065 22.9251C158.695 23.2304 158.258 23.4049 157.757 23.4485C157.277 23.5139 156.808 23.5576 156.35 23.5794C155.434 23.6012 154.518 23.6121 153.602 23.6121C152.686 23.6339 151.77 23.6448 150.854 23.6448C150.571 23.6666 150.287 23.6666 150.004 23.6448C149.742 23.6448 149.47 23.5903 149.186 23.4812C148.881 23.3722 148.597 23.2086 148.335 22.9905C148.096 22.7724 147.91 22.5107 147.779 22.2054C147.67 22.0091 147.594 21.802 147.55 21.5839C147.529 21.3658 147.496 21.1368 147.452 20.8969C147.147 18.6506 146.951 16.4043 146.863 14.1581C146.776 11.89 146.831 9.62187 147.027 7.35377C147.071 6.9176 147.136 6.48143 147.223 6.04525C147.332 5.60908 147.55 5.23834 147.877 4.93302C148.117 4.69312 148.401 4.52956 148.728 4.44232C149.077 4.33328 149.426 4.25695 149.775 4.21333C151.934 3.84259 154.137 3.74445 156.383 3.91892C156.645 3.94073 156.906 3.97344 157.168 4.01705C157.451 4.03886 157.724 4.10429 157.986 4.21333C158.487 4.43142 158.88 4.80217 159.163 5.32557C159.469 5.82717 159.589 6.35058 159.523 6.89579C159.458 7.46281 159.229 7.96441 158.836 8.40058C158.444 8.81495 157.975 9.07665 157.43 9.18569C157.146 9.22931 156.863 9.25112 156.579 9.25112C156.317 9.25112 156.045 9.22931 155.761 9.18569C155.172 9.14208 154.573 9.13117 153.962 9.15298C153.373 9.15298 152.784 9.17479 152.196 9.21841C152.174 9.58915 152.163 9.9599 152.163 10.3306C152.163 10.7014 152.152 11.0721 152.13 11.4429C152.741 11.4865 153.351 11.4756 153.962 11.4102C154.573 11.3229 155.162 11.3993 155.729 11.6392C156.208 11.8572 156.59 12.2062 156.874 12.686C157.179 13.1658 157.321 13.6674 157.299 14.1908C157.255 14.736 157.059 15.2267 156.71 15.6628C156.361 16.099 155.936 16.4043 155.434 16.5788C154.933 16.7315 154.409 16.7751 153.864 16.7097C153.341 16.6442 152.828 16.6551 152.326 16.7424C152.348 17.0041 152.37 17.2658 152.392 17.5275C152.414 17.7892 152.435 18.0509 152.457 18.3126C153.155 18.3126 153.831 18.3126 154.485 18.3126C155.162 18.2908 155.849 18.269 156.546 18.2472C156.83 18.2472 157.103 18.2581 157.364 18.2799C157.648 18.2799 157.92 18.3235 158.182 18.4107C158.553 18.498 158.902 18.7051 159.229 19.0323Z" fill="#190020"/>
<path d="M19.2831 8.82585C19.4794 9.39288 19.5775 9.9708 19.5775 10.5596C19.5557 11.6719 19.2286 12.7078 18.5961 13.6674C17.9855 14.6051 17.2222 15.3793 16.3062 15.99C15.8046 16.3389 15.2703 16.6442 14.7033 16.9059C14.1581 17.1458 13.602 17.353 13.0349 17.5275C12.9695 17.5493 12.7405 17.6038 12.348 17.691C11.9554 17.7565 11.5301 17.8328 11.0722 17.92C10.636 17.9855 10.2434 18.0509 9.8945 18.1163C9.54556 18.1599 9.3711 18.1599 9.3711 18.1163C9.34929 18.6397 9.40381 19.174 9.53466 19.7192C9.68732 20.2427 9.72003 20.7661 9.6328 21.2895C9.54556 21.8129 9.29477 22.2709 8.8804 22.6634C8.48785 23.0778 8.02987 23.3395 7.50646 23.4485C6.96125 23.5358 6.42694 23.4485 5.90353 23.1868C5.40193 22.9469 5.02028 22.5871 4.75858 22.1073C4.60592 21.8238 4.49687 21.5185 4.43145 21.1913C4.36602 20.886 4.3115 20.5807 4.26788 20.2754C3.98437 18.0291 3.799 15.7828 3.71176 13.5365C3.64634 11.2902 3.72267 9.04394 3.94076 6.79765C3.98437 6.53595 4.01709 6.28515 4.03889 6.04525C4.08251 5.78355 4.16975 5.53275 4.3006 5.29286C4.47507 4.92211 4.73677 4.6386 5.08571 4.44232C5.45645 4.22424 5.8381 4.09339 6.23066 4.04977C7.03758 3.94073 7.84449 3.8753 8.65141 3.85349C9.48014 3.83168 10.298 3.83168 11.1049 3.85349C11.9118 3.89711 12.7078 3.98434 13.4929 4.11519C14.2998 4.22424 15.074 4.46413 15.8155 4.83488C16.6225 5.24924 17.3312 5.80536 17.9419 6.50324C18.5743 7.20111 19.0214 7.97532 19.2831 8.82585ZM12.3153 12.1626C12.6642 12.0317 12.9913 11.8682 13.2966 11.6719C13.6238 11.4756 13.8964 11.2248 14.1145 10.9195C14.2017 10.7886 14.2453 10.6796 14.2453 10.5923C14.2889 10.3961 14.2126 10.1998 14.0163 10.0035C13.7982 9.76362 13.5365 9.58915 13.2312 9.48011C12.9477 9.37107 12.6533 9.29474 12.348 9.25112C11.8246 9.18569 11.3012 9.16389 10.7777 9.18569C10.2543 9.2075 9.74184 9.24021 9.24024 9.28383C9.17482 9.28383 9.1312 9.29474 9.10939 9.31655C9.10939 9.31655 9.08758 9.36016 9.04397 9.4474C9.02216 10.0144 9.01125 10.5814 9.01125 11.1485C9.01125 11.6937 9.01125 12.2498 9.01125 12.8168C9.01125 12.8604 9.14211 12.8713 9.40381 12.8495C9.68732 12.8059 10.0035 12.7514 10.3525 12.686C10.7014 12.6205 11.0176 12.5551 11.3012 12.4897C11.6065 12.4243 11.7919 12.3807 11.8573 12.3588C11.9445 12.3152 12.0208 12.2825 12.0863 12.2607C12.1517 12.2389 12.228 12.2062 12.3153 12.1626Z" stroke="white" stroke-width="6" mask="url(#path-1-outside-1_1_32)"/>
<path d="M33.6303 14.1581C33.7393 15.1394 33.8265 16.1208 33.892 17.1022C33.9792 18.0836 34.0446 19.065 34.0882 20.0464C34.1319 20.548 34.1101 21.0496 34.0228 21.5512C33.9574 22.0528 33.7393 22.4998 33.3686 22.8924C33.0414 23.2195 32.6271 23.4376 32.1255 23.5467C31.6457 23.6775 31.1877 23.6775 30.7515 23.5467C30.2499 23.394 29.8247 23.1105 29.4757 22.6961C29.1268 22.3036 28.9196 21.8456 28.8542 21.3222C28.4834 21.344 28.1018 21.3549 27.7092 21.3549C27.3167 21.3549 26.935 21.3549 26.5643 21.3549C26.477 21.3767 26.3898 21.3876 26.3026 21.3876C26.2153 21.3876 26.139 21.4094 26.0736 21.453C25.9645 21.5185 25.8773 21.5948 25.8119 21.682C25.7683 21.7911 25.7137 21.9001 25.6483 22.0091C25.452 22.3799 25.1794 22.6961 24.8305 22.9578C24.5034 23.2413 24.1217 23.4158 23.6855 23.4812C23.2712 23.5685 22.8568 23.5358 22.4425 23.3831C22.0281 23.2522 21.6792 23.0342 21.3956 22.7288C21.0031 22.2927 20.7741 21.7693 20.7087 21.1586C20.6432 20.548 20.6323 19.9482 20.676 19.3594C20.785 17.5929 20.9704 15.8373 21.2321 14.0926C21.5156 12.3261 21.9081 10.5814 22.4097 8.85856C22.6496 8.00803 22.9768 7.1793 23.3911 6.37238C23.8055 5.54366 24.3943 4.9003 25.1576 4.44232C25.6592 4.137 26.1935 3.94073 26.7606 3.85349C27.3276 3.76626 27.8946 3.79897 28.4616 3.95163C29.0286 4.08248 29.5521 4.31147 30.0318 4.6386C30.5116 4.94392 30.9369 5.32557 31.3076 5.78355C31.8529 6.43781 32.2454 7.1793 32.4853 8.00803C32.747 8.83676 32.9542 9.66548 33.1069 10.4942C33.2159 11.1049 33.314 11.7155 33.4013 12.3261C33.4885 12.915 33.5648 13.5256 33.6303 14.1581ZM28.5271 16.0227C28.4834 15.6519 28.4398 15.2703 28.3962 14.8777C28.3744 14.4852 28.3417 14.1035 28.2981 13.7328L27.9055 11.3775C27.8619 11.1594 27.8183 10.9413 27.7747 10.7232C27.731 10.5051 27.6765 10.2761 27.6111 10.0362C27.6111 10.058 27.6002 10.0798 27.5784 10.1017C27.5784 10.1017 27.5784 10.1235 27.5784 10.1671C27.2731 11.1485 27.0114 12.1299 26.7933 13.1112C26.597 14.0926 26.4225 15.0958 26.2699 16.1208C27.0114 16.0554 27.7638 16.0227 28.5271 16.0227Z" stroke="white" stroke-width="6" mask="url(#path-1-outside-1_1_32)"/>
<path d="M54.7265 5.52185C54.8355 5.78355 54.901 6.04526 54.9228 6.30696C54.9664 6.56866 54.9991 6.84127 55.0209 7.12478C55.348 11.2466 55.2172 15.3575 54.6284 19.4575C54.5847 19.8937 54.5084 20.319 54.3994 20.7333C54.3121 21.1695 54.1595 21.573 53.9414 21.9437C53.7015 22.3799 53.3744 22.7506 52.96 23.056C52.5456 23.3831 52.0877 23.6012 51.5861 23.7102C51.0845 23.8193 50.572 23.8084 50.0486 23.6775C49.547 23.5467 49.0999 23.3068 48.7073 22.9578C48.402 22.6961 48.1403 22.3908 47.9222 22.0419C47.7041 21.6929 47.5079 21.3331 47.3334 20.9623C47.0063 20.3299 46.6791 19.7083 46.352 19.0977C46.0467 18.4871 45.7305 17.8655 45.4033 17.2331C45.098 17.7565 44.8254 18.3017 44.5855 18.8687C44.3456 19.4139 44.073 19.9482 43.7677 20.4716C43.4624 21.0169 43.1134 21.5185 42.7209 21.9764C42.3501 22.4562 41.8921 22.8488 41.3469 23.1541C40.8453 23.4158 40.3328 23.5467 39.8094 23.5467C39.286 23.5685 38.7844 23.4812 38.3046 23.285C37.8248 23.0887 37.3996 22.7943 37.0288 22.4017C36.6581 22.0091 36.3855 21.5512 36.211 21.0278C36.0583 20.5916 35.9602 20.1554 35.9166 19.7192C35.8948 19.2613 35.873 18.8033 35.8512 18.3453C35.7857 16.5134 35.7639 14.6924 35.7857 12.8823C35.8293 11.0721 35.9275 9.25112 36.0802 7.4192C36.1238 7.04845 36.1783 6.68861 36.2437 6.33967C36.3091 5.96892 36.4291 5.61999 36.6036 5.29286C36.8434 4.8785 37.1815 4.55137 37.6177 4.31147C38.0756 4.07158 38.5554 3.97344 39.057 4.01705C39.5368 4.06067 39.973 4.23514 40.3655 4.54046C40.7581 4.84578 41.0416 5.22743 41.2161 5.68541C41.3469 6.01254 41.4124 6.36148 41.4124 6.73223C41.4342 7.08116 41.4342 7.44101 41.4124 7.81175C41.3469 8.85856 41.2815 9.89447 41.2161 10.9195C41.1507 11.9445 41.0852 12.9804 41.0198 14.0272C41.3905 13.591 41.685 13.1003 41.903 12.5551C42.1211 11.9881 42.361 11.4538 42.6227 10.9522C42.8844 10.4288 43.2225 9.94899 43.6368 9.51282C44.073 9.07665 44.5746 8.83676 45.1416 8.79314C45.7741 8.74952 46.352 8.9458 46.8754 9.38197C47.3988 9.79633 47.8132 10.287 48.1185 10.8541C48.4238 11.4211 48.6855 12.0099 48.9036 12.6205C49.1435 13.2094 49.4597 13.7546 49.8523 14.2562C49.9613 12.1844 49.9286 10.1126 49.7541 8.04074C49.7105 7.62638 49.6778 7.21202 49.656 6.79765C49.6342 6.36148 49.7105 5.95802 49.885 5.58727C50.0595 5.10749 50.3648 4.71493 50.801 4.40961C51.2371 4.08248 51.706 3.90801 52.2076 3.8862C52.7092 3.86439 53.189 3.99525 53.647 4.27876C54.105 4.56227 54.443 4.93302 54.6611 5.391C54.7047 5.47823 54.7265 5.52185 54.7265 5.52185Z" stroke="white" stroke-width="6" mask="url(#path-1-outside-1_1_32)"/>
<path d="M70.8591 16.9387C71.0771 17.6147 71.1208 18.2581 70.9899 18.8687C70.8155 19.6974 70.4338 20.4171 69.845 21.0278C69.2561 21.6384 68.591 22.1291 67.8495 22.4998C66.9771 22.936 66.0503 23.2304 65.0689 23.3831C64.1093 23.5576 63.1388 23.6121 62.1574 23.5467C61.7649 23.5248 61.3396 23.4812 60.8816 23.4158C60.4455 23.3504 60.0202 23.2413 59.6058 23.0887C59.1915 22.936 58.8098 22.7288 58.4609 22.4671C58.1338 22.2054 57.8829 21.8674 57.7085 21.453C57.534 21.0823 57.4686 20.6897 57.5122 20.2754C57.5558 19.861 57.6867 19.4794 57.9048 19.1304C58.1228 18.7815 58.4064 18.498 58.7553 18.2799C59.126 18.0618 59.5186 17.9309 59.933 17.8873C60.3691 17.8437 60.8053 17.8873 61.2415 18.0182C61.6777 18.1272 62.1138 18.2035 62.55 18.2472C63.466 18.3562 64.3383 18.2254 65.167 17.8546C64.6218 17.4402 64.0439 17.1022 63.4332 16.8405C62.8226 16.557 62.2011 16.2626 61.5686 15.9573C60.9362 15.6519 60.3255 15.3139 59.7367 14.9432C59.1697 14.5724 58.6899 14.1035 58.2973 13.5365C57.8393 12.9041 57.5449 12.1953 57.4141 11.4102C57.305 10.6033 57.3705 9.81814 57.6103 9.05484C57.8284 8.29154 58.1883 7.60457 58.6899 6.99393C59.1915 6.36148 59.7803 5.83807 60.4564 5.42371C61.1324 5.03115 61.8521 4.73674 62.6154 4.54046C63.4005 4.34418 64.1856 4.25695 64.9707 4.27876C65.4942 4.30057 66.0176 4.36599 66.541 4.47504C67.0644 4.58408 67.566 4.75855 68.0458 4.99844C68.5256 5.26015 68.9399 5.59818 69.2888 6.01254C69.6596 6.4051 69.9213 6.86308 70.074 7.38648C70.2266 7.88808 70.2375 8.41149 70.1067 8.9567C69.9758 9.50192 69.7141 9.9599 69.3216 10.3306C69.0599 10.5705 68.7545 10.745 68.4056 10.8541C68.0785 10.9413 67.7404 10.974 67.3915 10.9522C67.0644 10.9304 66.7372 10.8541 66.4101 10.7232C66.083 10.5705 65.8104 10.3634 65.5923 10.1017C65.5051 10.0144 65.4287 9.92719 65.3633 9.83995C65.2979 9.75272 65.2106 9.68729 65.1016 9.64367C64.9271 9.55644 64.6981 9.55644 64.4146 9.64367C64.0657 9.68729 63.7168 9.77453 63.3678 9.90538C63.0407 10.0144 62.8117 10.2216 62.6808 10.5269C63.2915 10.8977 63.913 11.2357 64.5455 11.541C65.1779 11.8245 65.8104 12.1299 66.4428 12.457C67.0753 12.7623 67.6859 13.1221 68.2747 13.5365C68.8636 13.9291 69.3761 14.3979 69.8123 14.9432C70.3139 15.532 70.6628 16.1972 70.8591 16.9387Z" stroke="white" stroke-width="6" mask="url(#path-1-outside-1_1_32)"/>
<path d="M77.2169 23.6121C77.1296 23.6121 77.0533 23.6012 76.9879 23.5794C76.9225 23.5794 76.8461 23.5685 76.7589 23.5467C76.2137 23.4594 75.7339 23.2086 75.3195 22.7943C74.927 22.3799 74.6871 21.8892 74.5998 21.3222C74.5126 20.777 74.5998 20.2427 74.8615 19.7192C75.1451 19.1958 75.5376 18.8142 76.0392 18.5743C76.5408 18.3344 77.0751 18.269 77.6421 18.378C78.231 18.4653 78.7217 18.7051 79.1142 19.0977C79.5286 19.5121 79.7576 19.9809 79.8012 20.5044C79.8666 21.0278 79.8012 21.5185 79.6049 21.9764C79.4086 22.4344 79.0924 22.8161 78.6562 23.1214C78.2419 23.4485 77.7621 23.6121 77.2169 23.6121Z" stroke="white" stroke-width="6" mask="url(#path-1-outside-1_1_32)"/>
<path d="M97.1999 8.82585C97.3961 9.39288 97.4943 9.9708 97.4943 10.5596C97.4725 11.6719 97.1453 12.7078 96.5129 13.6674C95.9022 14.6051 95.1389 15.3793 94.223 15.99C93.7214 16.3389 93.1871 16.6442 92.62 16.9059C92.0748 17.1458 91.5187 17.353 90.9517 17.5275C90.8863 17.5493 90.6573 17.6038 90.2647 17.691C89.8722 17.7565 89.4469 17.8328 88.9889 17.92C88.5527 17.9855 88.1602 18.0509 87.8112 18.1163C87.4623 18.1599 87.2878 18.1599 87.2878 18.1163C87.266 18.6397 87.3205 19.174 87.4514 19.7192C87.6041 20.2427 87.6368 20.7661 87.5495 21.2895C87.4623 21.8129 87.2115 22.2709 86.7971 22.6634C86.4046 23.0778 85.9466 23.3395 85.4232 23.4485C84.878 23.5358 84.3437 23.4485 83.8203 23.1868C83.3187 22.9469 82.937 22.5871 82.6753 22.1073C82.5227 21.8238 82.4136 21.5185 82.3482 21.1913C82.2828 20.886 82.2282 20.5807 82.1846 20.2754C81.9011 18.0291 81.7157 15.7828 81.6285 13.5365C81.5631 11.2902 81.6394 9.04394 81.8575 6.79765C81.9011 6.53595 81.9338 6.28515 81.9556 6.04525C81.9993 5.78355 82.0865 5.53275 82.2173 5.29286C82.3918 4.92211 82.6535 4.6386 83.0025 4.44232C83.3732 4.22424 83.7548 4.09339 84.1474 4.04977C84.9543 3.94073 85.7612 3.8753 86.5682 3.85349C87.3969 3.83168 88.2147 3.83168 89.0216 3.85349C89.8285 3.89711 90.6246 3.98434 91.4097 4.11519C92.2166 4.22424 92.9908 4.46413 93.7323 4.83488C94.5392 5.24924 95.248 5.80536 95.8586 6.50324C96.4911 7.20111 96.9381 7.97532 97.1999 8.82585ZM90.232 12.1626C90.5809 12.0317 90.9081 11.8682 91.2134 11.6719C91.5405 11.4756 91.8131 11.2248 92.0312 10.9195C92.1184 10.7886 92.1621 10.6796 92.1621 10.5923C92.2057 10.3961 92.1293 10.1998 91.9331 10.0035C91.715 9.76362 91.4533 9.58915 91.148 9.48011C90.8644 9.37107 90.57 9.29474 90.2647 9.25112C89.7413 9.18569 89.2179 9.16389 88.6945 9.18569C88.1711 9.2075 87.6586 9.24021 87.157 9.28383C87.0916 9.28383 87.0479 9.29474 87.0261 9.31655C87.0261 9.31655 87.0043 9.36016 86.9607 9.4474C86.9389 10.0144 86.928 10.5814 86.928 11.1485C86.928 11.6937 86.928 12.2498 86.928 12.8168C86.928 12.8604 87.0589 12.8713 87.3206 12.8495C87.6041 12.8059 87.9203 12.7514 88.2692 12.686C88.6182 12.6205 88.9344 12.5551 89.2179 12.4897C89.5232 12.4243 89.7086 12.3807 89.774 12.3588C89.8613 12.3152 89.9376 12.2825 90.003 12.2607C90.0684 12.2389 90.1448 12.2062 90.232 12.1626Z" stroke="white" stroke-width="6" mask="url(#path-1-outside-1_1_32)"/>
<path d="M112.882 18.9668C113.449 19.4903 113.711 20.1227 113.667 20.8642C113.667 21.3004 113.558 21.7147 113.34 22.1073C113.122 22.4998 112.827 22.8161 112.457 23.056C112.02 23.3177 111.541 23.4485 111.017 23.4485C110.494 23.4703 109.981 23.4812 109.48 23.4812C108.542 23.4812 107.604 23.4703 106.666 23.4485C105.729 23.4485 104.78 23.4485 103.82 23.4485C103.58 23.4485 103.33 23.4376 103.068 23.4158C102.806 23.394 102.555 23.3286 102.316 23.2195C102.054 23.1105 101.825 22.936 101.629 22.6961C101.432 22.4562 101.28 22.2054 101.171 21.9437C101.062 21.6602 100.974 21.3658 100.909 21.0605C100.843 20.777 100.789 20.4825 100.745 20.1772C100.44 17.9964 100.255 15.8264 100.189 13.6674C100.146 11.4865 100.211 9.30564 100.386 7.12478C100.407 6.86308 100.429 6.60137 100.451 6.33967C100.495 6.07797 100.571 5.82717 100.68 5.58727C100.876 5.08568 101.203 4.69312 101.661 4.40961C102.119 4.10429 102.61 3.96253 103.133 3.98434C103.657 3.98434 104.137 4.14791 104.573 4.47504C105.031 4.78036 105.347 5.18382 105.521 5.68541C105.652 6.05616 105.718 6.43781 105.718 6.83036C105.718 7.22292 105.696 7.61547 105.652 8.00803C105.347 11.4102 105.412 14.8014 105.849 18.1817C106.525 18.1599 107.19 18.149 107.844 18.149C108.52 18.149 109.196 18.149 109.872 18.149C110.265 18.149 110.657 18.1599 111.05 18.1817C111.442 18.2035 111.824 18.3017 112.195 18.4762C112.457 18.607 112.686 18.7706 112.882 18.9668Z" stroke="white" stroke-width="6" mask="url(#path-1-outside-1_1_32)"/>
<path d="M127.999 14.1581C128.108 15.1394 128.196 16.1208 128.261 17.1022C128.348 18.0836 128.414 19.065 128.457 20.0464C128.501 20.548 128.479 21.0496 128.392 21.5512C128.326 22.0528 128.108 22.4998 127.738 22.8924C127.41 23.2195 126.996 23.4376 126.494 23.5467C126.015 23.6775 125.557 23.6775 125.121 23.5467C124.619 23.394 124.194 23.1105 123.845 22.6961C123.496 22.3036 123.289 21.8456 123.223 21.3222C122.852 21.344 122.471 21.3549 122.078 21.3549C121.686 21.3549 121.304 21.3549 120.933 21.3549C120.846 21.3767 120.759 21.3876 120.672 21.3876C120.584 21.3876 120.508 21.4094 120.443 21.453C120.334 21.5185 120.246 21.5948 120.181 21.682C120.137 21.7911 120.083 21.9001 120.017 22.0091C119.821 22.3799 119.548 22.6961 119.2 22.9578C118.872 23.2413 118.491 23.4158 118.055 23.4812C117.64 23.5685 117.226 23.5358 116.811 23.3831C116.397 23.2522 116.048 23.0342 115.765 22.7288C115.372 22.2927 115.143 21.7693 115.078 21.1586C115.012 20.548 115.001 19.9482 115.045 19.3594C115.154 17.5929 115.339 15.8373 115.601 14.0926C115.885 12.3261 116.277 10.5814 116.779 8.85856C117.019 8.00803 117.346 7.1793 117.76 6.37238C118.175 5.54366 118.763 4.9003 119.527 4.44232C120.028 4.137 120.563 3.94073 121.13 3.85349C121.697 3.76626 122.264 3.79897 122.831 3.95163C123.398 4.08248 123.921 4.31147 124.401 4.6386C124.881 4.94392 125.306 5.32557 125.677 5.78355C126.222 6.43781 126.614 7.1793 126.854 8.00803C127.116 8.83676 127.323 9.66548 127.476 10.4942C127.585 11.1049 127.683 11.7155 127.77 12.3261C127.858 12.915 127.934 13.5256 127.999 14.1581ZM122.896 16.0227C122.852 15.6519 122.809 15.2703 122.765 14.8777C122.743 14.4852 122.711 14.1035 122.667 13.7328L122.275 11.3775C122.231 11.1594 122.187 10.9413 122.144 10.7232C122.1 10.5051 122.046 10.2761 121.98 10.0362C121.98 10.058 121.969 10.0798 121.947 10.1017C121.947 10.1017 121.947 10.1235 121.947 10.1671C121.642 11.1485 121.38 12.1299 121.162 13.1112C120.966 14.0926 120.792 15.0958 120.639 16.1208C121.38 16.0554 122.133 16.0227 122.896 16.0227Z" stroke="white" stroke-width="6" mask="url(#path-1-outside-1_1_32)"/>
<path d="M144.516 18.2472C144.756 18.836 144.767 19.4248 144.548 20.0137C144.33 20.6025 143.981 21.115 143.502 21.5512C142.869 22.0964 142.182 22.5435 141.441 22.8924C140.699 23.2631 139.914 23.503 139.085 23.6121C138.126 23.7429 137.166 23.6884 136.207 23.4485C135.269 23.2304 134.418 22.8379 133.655 22.2709C133.066 21.8347 132.554 21.3113 132.118 20.7006C131.681 20.1118 131.322 19.4684 131.038 18.7706C130.755 18.0727 130.547 17.3639 130.416 16.6442C130.286 15.9246 130.198 15.1831 130.155 14.4198C130.111 13.3075 130.187 12.2062 130.384 11.1158C130.58 10.0253 130.951 8.98942 131.496 8.00803C132.041 7.02664 132.75 6.17611 133.622 5.45642C134.516 4.73674 135.52 4.28966 136.632 4.11519C137.766 3.94073 138.878 4.08248 139.969 4.54046C141.081 4.99844 141.975 5.70722 142.651 6.6668C142.891 6.97212 143.076 7.32106 143.207 7.71361C143.36 8.08436 143.425 8.46601 143.403 8.85856C143.382 9.42559 143.185 9.94899 142.815 10.4288C142.444 10.9086 141.975 11.2139 141.408 11.3447C140.841 11.4756 140.285 11.4211 139.74 11.1812C139.194 10.9413 138.78 10.5705 138.497 10.0689C138.431 9.9599 138.366 9.86176 138.3 9.77453C138.257 9.66548 138.191 9.57825 138.104 9.51282C137.908 9.36016 137.679 9.31654 137.417 9.38197C137.155 9.4474 136.937 9.56734 136.763 9.74181C136.392 10.0471 136.109 10.4397 135.912 10.9195C135.738 11.3775 135.618 11.8463 135.552 12.3261C135.356 13.5474 135.411 14.8014 135.716 16.0881C135.825 16.5025 135.978 16.895 136.174 17.2658C136.37 17.6365 136.654 17.9309 137.024 18.149C137.33 18.3235 137.679 18.4107 138.071 18.4107C138.464 18.3889 138.824 18.2908 139.151 18.1163C139.478 17.9418 139.772 17.7456 140.034 17.5275C140.318 17.2876 140.623 17.0804 140.95 16.9059C141.495 16.6442 142.073 16.5897 142.684 16.7424C143.294 16.8732 143.785 17.1785 144.156 17.6583C144.221 17.7674 144.287 17.8655 144.352 17.9528C144.418 18.04 144.472 18.1381 144.516 18.2472Z" stroke="white" stroke-width="6" mask="url(#path-1-outside-1_1_32)"/>
<path d="M159.229 19.0323C159.6 19.403 159.829 19.8065 159.916 20.2427C160.047 20.7006 160.025 21.1804 159.85 21.682C159.698 22.2054 159.436 22.6198 159.065 22.9251C158.695 23.2304 158.258 23.4049 157.757 23.4485C157.277 23.5139 156.808 23.5576 156.35 23.5794C155.434 23.6012 154.518 23.6121 153.602 23.6121C152.686 23.6339 151.77 23.6448 150.854 23.6448C150.571 23.6666 150.287 23.6666 150.004 23.6448C149.742 23.6448 149.47 23.5903 149.186 23.4812C148.881 23.3722 148.597 23.2086 148.335 22.9905C148.096 22.7724 147.91 22.5107 147.779 22.2054C147.67 22.0091 147.594 21.802 147.55 21.5839C147.529 21.3658 147.496 21.1368 147.452 20.8969C147.147 18.6506 146.951 16.4043 146.863 14.1581C146.776 11.89 146.831 9.62187 147.027 7.35377C147.071 6.9176 147.136 6.48143 147.223 6.04525C147.332 5.60908 147.55 5.23834 147.877 4.93302C148.117 4.69312 148.401 4.52956 148.728 4.44232C149.077 4.33328 149.426 4.25695 149.775 4.21333C151.934 3.84259 154.137 3.74445 156.383 3.91892C156.645 3.94073 156.906 3.97344 157.168 4.01705C157.451 4.03886 157.724 4.10429 157.986 4.21333C158.487 4.43142 158.88 4.80217 159.163 5.32557C159.469 5.82717 159.589 6.35058 159.523 6.89579C159.458 7.46281 159.229 7.96441 158.836 8.40058C158.444 8.81495 157.975 9.07665 157.43 9.18569C157.146 9.22931 156.863 9.25112 156.579 9.25112C156.317 9.25112 156.045 9.22931 155.761 9.18569C155.172 9.14208 154.573 9.13117 153.962 9.15298C153.373 9.15298 152.784 9.17479 152.196 9.21841C152.174 9.58915 152.163 9.9599 152.163 10.3306C152.163 10.7014 152.152 11.0721 152.13 11.4429C152.741 11.4865 153.351 11.4756 153.962 11.4102C154.573 11.3229 155.162 11.3993 155.729 11.6392C156.208 11.8572 156.59 12.2062 156.874 12.686C157.179 13.1658 157.321 13.6674 157.299 14.1908C157.255 14.736 157.059 15.2267 156.71 15.6628C156.361 16.099 155.936 16.4043 155.434 16.5788C154.933 16.7315 154.409 16.7751 153.864 16.7097C153.341 16.6442 152.828 16.6551 152.326 16.7424C152.348 17.0041 152.37 17.2658 152.392 17.5275C152.414 17.7892 152.435 18.0509 152.457 18.3126C153.155 18.3126 153.831 18.3126 154.485 18.3126C155.162 18.2908 155.849 18.269 156.546 18.2472C156.83 18.2472 157.103 18.2581 157.364 18.2799C157.648 18.2799 157.92 18.3235 158.182 18.4107C158.553 18.498 158.902 18.7051 159.229 19.0323Z" stroke="white" stroke-width="6" mask="url(#path-1-outside-1_1_32)"/>
</g>
</svg>
