<svg width="198" height="31" viewBox="0 0 198 31" fill="none" xmlns="http://www.w3.org/2000/svg">
<rect width="198" height="31" fill="#F5F5F5"/>
<g clip-path="url(#clip0_0_1)">
<rect width="1440" height="3907" transform="translate(-155 -40)" fill="white"/>
<mask id="path-1-outside-1_0_1" maskUnits="userSpaceOnUse" x="0" y="0" width="198" height="31" fill="black">
<rect fill="white" width="198" height="31"/>
<path d="M22.0677 9.13818C22.3077 9.83152 22.4277 10.5382 22.4277 11.2582C22.401 12.6182 22.001 13.8848 21.2277 15.0582C20.481 16.2048 19.5477 17.1515 18.4277 17.8982C17.8144 18.3248 17.161 18.6982 16.4677 19.0182C15.801 19.3115 15.121 19.5648 14.4277 19.7782C14.3477 19.8048 14.0677 19.8715 13.5877 19.9782C13.1077 20.0582 12.5877 20.1515 12.0277 20.2582C11.4944 20.3382 11.0144 20.4182 10.5877 20.4982C10.161 20.5515 9.94769 20.5515 9.94769 20.4982C9.92103 21.1382 9.98769 21.7915 10.1477 22.4582C10.3344 23.0982 10.3744 23.7382 10.2677 24.3782C10.161 25.0182 9.85436 25.5782 9.34769 26.0582C8.86769 26.5648 8.30769 26.8848 7.66769 27.0182C7.00103 27.1248 6.34769 27.0182 5.70769 26.6982C5.09436 26.4049 4.62769 25.9648 4.30769 25.3782C4.12103 25.0315 3.98769 24.6582 3.90769 24.2582C3.82769 23.8848 3.76103 23.5115 3.70769 23.1382C3.36103 20.3915 3.13436 17.6448 3.02769 14.8982C2.94769 12.1515 3.04103 9.40485 3.30769 6.65818C3.36103 6.33818 3.40103 6.03152 3.42769 5.73818C3.48103 5.41818 3.58769 5.11152 3.74769 4.81818C3.96103 4.36485 4.28103 4.01818 4.70769 3.77818C5.16103 3.51152 5.62769 3.35152 6.10769 3.29818C7.09436 3.16485 8.08103 3.08485 9.06769 3.05818C10.081 3.03152 11.081 3.03152 12.0677 3.05818C13.0544 3.11152 14.0277 3.21818 14.9877 3.37818C15.9744 3.51152 16.921 3.80485 17.8277 4.25818C18.8144 4.76485 19.681 5.44485 20.4277 6.29818C21.201 7.15152 21.7477 8.09818 22.0677 9.13818ZM13.5477 13.2182C13.9744 13.0582 14.3744 12.8582 14.7477 12.6182C15.1477 12.3782 15.481 12.0715 15.7477 11.6982C15.8544 11.5382 15.9077 11.4049 15.9077 11.2982C15.961 11.0582 15.8677 10.8182 15.6277 10.5782C15.361 10.2848 15.041 10.0715 14.6677 9.93818C14.321 9.80485 13.961 9.71152 13.5877 9.65818C12.9477 9.57818 12.3077 9.55152 11.6677 9.57818C11.0277 9.60485 10.401 9.64485 9.78769 9.69818C9.70769 9.69818 9.65436 9.71152 9.62769 9.73818C9.62769 9.73818 9.60103 9.79152 9.54769 9.89818C9.52103 10.5915 9.50769 11.2848 9.50769 11.9782C9.50769 12.6448 9.50769 13.3249 9.50769 14.0182C9.50769 14.0715 9.66769 14.0848 9.98769 14.0582C10.3344 14.0048 10.721 13.9382 11.1477 13.8582C11.5744 13.7782 11.961 13.6982 12.3077 13.6182C12.681 13.5382 12.9077 13.4848 12.9877 13.4582C13.0944 13.4048 13.1877 13.3649 13.2677 13.3382C13.3477 13.3115 13.441 13.2715 13.5477 13.2182Z"/>
<path d="M39.6108 15.6582C39.7441 16.8582 39.8508 18.0582 39.9308 19.2582C40.0375 20.4582 40.1175 21.6582 40.1708 22.8582C40.2242 23.4715 40.1975 24.0849 40.0908 24.6982C40.0108 25.3115 39.7442 25.8582 39.2908 26.3382C38.8908 26.7382 38.3842 27.0049 37.7708 27.1382C37.1842 27.2982 36.6241 27.2982 36.0908 27.1382C35.4775 26.9515 34.9575 26.6048 34.5308 26.0982C34.1042 25.6182 33.8508 25.0582 33.7708 24.4182C33.3175 24.4449 32.8508 24.4582 32.3708 24.4582C31.8908 24.4582 31.4242 24.4582 30.9708 24.4582C30.8642 24.4848 30.7575 24.4982 30.6508 24.4982C30.5442 24.4982 30.4508 24.5249 30.3708 24.5782C30.2375 24.6582 30.1308 24.7515 30.0508 24.8582C29.9975 24.9915 29.9308 25.1249 29.8508 25.2582C29.6108 25.7115 29.2775 26.0982 28.8508 26.4182C28.4508 26.7649 27.9841 26.9782 27.4508 27.0582C26.9442 27.1649 26.4375 27.1248 25.9308 26.9382C25.4242 26.7782 24.9975 26.5115 24.6508 26.1382C24.1708 25.6049 23.8908 24.9648 23.8108 24.2182C23.7308 23.4715 23.7175 22.7382 23.7708 22.0182C23.9042 19.8582 24.1308 17.7115 24.4508 15.5782C24.7975 13.4182 25.2775 11.2848 25.8908 9.17818C26.1842 8.13818 26.5842 7.12485 27.0908 6.13818C27.5975 5.12485 28.3175 4.33818 29.2508 3.77818C29.8642 3.40485 30.5175 3.16485 31.2108 3.05818C31.9042 2.95151 32.5975 2.99152 33.2908 3.17818C33.9841 3.33818 34.6241 3.61818 35.2108 4.01818C35.7975 4.39152 36.3175 4.85818 36.7708 5.41818C37.4375 6.21818 37.9175 7.12485 38.2108 8.13818C38.5308 9.15152 38.7841 10.1648 38.9708 11.1782C39.1041 11.9249 39.2242 12.6715 39.3308 13.4182C39.4375 14.1382 39.5308 14.8848 39.6108 15.6582ZM33.3708 17.9382C33.3175 17.4848 33.2642 17.0182 33.2108 16.5382C33.1842 16.0582 33.1442 15.5915 33.0908 15.1382L32.6108 12.2582C32.5575 11.9915 32.5042 11.7248 32.4508 11.4582C32.3975 11.1915 32.3308 10.9115 32.2508 10.6182C32.2508 10.6448 32.2375 10.6715 32.2108 10.6982C32.2108 10.6982 32.2108 10.7248 32.2108 10.7782C31.8375 11.9782 31.5175 13.1782 31.2508 14.3782C31.0108 15.5782 30.7975 16.8048 30.6108 18.0582C31.5175 17.9782 32.4375 17.9382 33.3708 17.9382Z"/>
<path d="M65.4064 5.09818C65.5398 5.41818 65.6198 5.73818 65.6464 6.05818C65.6998 6.37818 65.7398 6.71152 65.7664 7.05818C66.1664 12.0982 66.0064 17.1248 65.2864 22.1382C65.2331 22.6715 65.1398 23.1915 65.0064 23.6982C64.8998 24.2315 64.7131 24.7248 64.4464 25.1782C64.1531 25.7115 63.7531 26.1649 63.2464 26.5382C62.7398 26.9382 62.1798 27.2048 61.5664 27.3382C60.9531 27.4715 60.3264 27.4582 59.6864 27.2982C59.0731 27.1382 58.5264 26.8449 58.0464 26.4182C57.6731 26.0982 57.3531 25.7248 57.0864 25.2982C56.8198 24.8715 56.5798 24.4315 56.3664 23.9782C55.9664 23.2049 55.5664 22.4448 55.1664 21.6982C54.7931 20.9515 54.4064 20.1915 54.0064 19.4182C53.6331 20.0582 53.2998 20.7248 53.0064 21.4182C52.7131 22.0848 52.3798 22.7382 52.0064 23.3782C51.6331 24.0448 51.2064 24.6582 50.7264 25.2182C50.2731 25.8048 49.7131 26.2849 49.0464 26.6582C48.4331 26.9782 47.8064 27.1382 47.1664 27.1382C46.5264 27.1649 45.9131 27.0582 45.3264 26.8182C44.7398 26.5782 44.2198 26.2182 43.7664 25.7382C43.3131 25.2582 42.9798 24.6982 42.7664 24.0582C42.5798 23.5249 42.4598 22.9915 42.4064 22.4582C42.3798 21.8982 42.3531 21.3382 42.3264 20.7782C42.2464 18.5382 42.2198 16.3115 42.2464 14.0982C42.2998 11.8848 42.4198 9.65818 42.6064 7.41818C42.6598 6.96485 42.7264 6.52485 42.8064 6.09818C42.8864 5.64485 43.0331 5.21818 43.2464 4.81818C43.5398 4.31152 43.9531 3.91152 44.4864 3.61818C45.0464 3.32485 45.6331 3.20485 46.2464 3.25818C46.8331 3.31152 47.3664 3.52485 47.8464 3.89818C48.3264 4.27152 48.6731 4.73818 48.8864 5.29818C49.0464 5.69818 49.1264 6.12485 49.1264 6.57818C49.1531 7.00485 49.1531 7.44485 49.1264 7.89818C49.0464 9.17818 48.9664 10.4448 48.8864 11.6982C48.8064 12.9515 48.7264 14.2182 48.6464 15.4982C49.0998 14.9648 49.4598 14.3648 49.7264 13.6982C49.9931 13.0048 50.2864 12.3515 50.6064 11.7382C50.9264 11.0982 51.3398 10.5115 51.8464 9.97818C52.3798 9.44485 52.9931 9.15152 53.6864 9.09818C54.4598 9.04485 55.1664 9.28485 55.8064 9.81818C56.4464 10.3248 56.9531 10.9248 57.3264 11.6182C57.6998 12.3115 58.0198 13.0315 58.2864 13.7782C58.5798 14.4982 58.9664 15.1648 59.4464 15.7782C59.5798 13.2448 59.5398 10.7115 59.3264 8.17818C59.2731 7.67152 59.2331 7.16485 59.2064 6.65818C59.1798 6.12485 59.2731 5.63152 59.4864 5.17818C59.6998 4.59152 60.0731 4.11152 60.6064 3.73818C61.1398 3.33818 61.7131 3.12485 62.3264 3.09818C62.9398 3.07152 63.5264 3.23152 64.0864 3.57818C64.6464 3.92485 65.0598 4.37818 65.3264 4.93818C65.3798 5.04485 65.4064 5.09818 65.4064 5.09818Z"/>
<path d="M85.1327 19.0582C85.3994 19.8848 85.4527 20.6715 85.2927 21.4182C85.0794 22.4315 84.6127 23.3115 83.8927 24.0582C83.1727 24.8048 82.3594 25.4049 81.4527 25.8582C80.386 26.3915 79.2527 26.7515 78.0527 26.9382C76.8794 27.1515 75.6927 27.2182 74.4927 27.1382C74.0127 27.1115 73.4927 27.0582 72.9327 26.9782C72.3994 26.8982 71.8794 26.7649 71.3727 26.5782C70.866 26.3915 70.3994 26.1382 69.9727 25.8182C69.5727 25.4982 69.266 25.0849 69.0527 24.5782C68.8394 24.1249 68.7594 23.6448 68.8127 23.1382C68.866 22.6315 69.026 22.1649 69.2927 21.7382C69.5594 21.3115 69.906 20.9648 70.3327 20.6982C70.786 20.4315 71.266 20.2715 71.7727 20.2182C72.306 20.1649 72.8394 20.2182 73.3727 20.3782C73.906 20.5115 74.4394 20.6049 74.9727 20.6582C76.0927 20.7915 77.1594 20.6315 78.1727 20.1782C77.506 19.6715 76.7994 19.2582 76.0527 18.9382C75.306 18.5915 74.546 18.2315 73.7727 17.8582C72.9994 17.4848 72.2527 17.0715 71.5327 16.6182C70.8394 16.1648 70.2527 15.5915 69.7727 14.8982C69.2127 14.1248 68.8527 13.2582 68.6927 12.2982C68.5594 11.3115 68.6394 10.3515 68.9327 9.41818C69.1994 8.48485 69.6394 7.64485 70.2527 6.89818C70.866 6.12485 71.586 5.48485 72.4127 4.97818C73.2394 4.49818 74.1194 4.13818 75.0527 3.89818C76.0127 3.65818 76.9727 3.55152 77.9327 3.57818C78.5727 3.60485 79.2127 3.68485 79.8527 3.81818C80.4927 3.95152 81.106 4.16485 81.6927 4.45818C82.2794 4.77818 82.786 5.19152 83.2127 5.69818C83.666 6.17818 83.986 6.73818 84.1727 7.37818C84.3594 7.99152 84.3727 8.63152 84.2127 9.29818C84.0527 9.96485 83.7327 10.5248 83.2527 10.9782C82.9327 11.2715 82.5594 11.4848 82.1327 11.6182C81.7327 11.7248 81.3194 11.7648 80.8927 11.7382C80.4927 11.7115 80.0927 11.6182 79.6927 11.4582C79.2927 11.2715 78.9594 11.0182 78.6927 10.6982C78.586 10.5915 78.4927 10.4848 78.4127 10.3782C78.3327 10.2715 78.226 10.1915 78.0927 10.1382C77.8794 10.0315 77.5994 10.0315 77.2527 10.1382C76.826 10.1915 76.3994 10.2982 75.9727 10.4582C75.5727 10.5915 75.2927 10.8448 75.1327 11.2182C75.8794 11.6715 76.6394 12.0848 77.4127 12.4582C78.186 12.8048 78.9594 13.1782 79.7327 13.5782C80.506 13.9515 81.2527 14.3915 81.9727 14.8982C82.6927 15.3782 83.3194 15.9515 83.8527 16.6182C84.466 17.3382 84.8927 18.1515 85.1327 19.0582Z"/>
<path d="M92.9068 27.2182C92.8001 27.2182 92.7068 27.2049 92.6268 27.1782C92.5468 27.1782 92.4534 27.1649 92.3468 27.1382C91.6801 27.0315 91.0934 26.7248 90.5868 26.2182C90.1068 25.7115 89.8134 25.1115 89.7068 24.4182C89.6001 23.7515 89.7068 23.0982 90.0268 22.4582C90.3734 21.8182 90.8534 21.3515 91.4668 21.0582C92.0801 20.7649 92.7334 20.6849 93.4268 20.8182C94.1468 20.9249 94.7467 21.2182 95.2268 21.6982C95.7334 22.2048 96.0134 22.7782 96.0668 23.4182C96.1468 24.0582 96.0667 24.6582 95.8268 25.2182C95.5868 25.7782 95.2001 26.2449 94.6668 26.6182C94.1601 27.0182 93.5734 27.2182 92.9068 27.2182Z"/>
<path d="M117.341 9.13818C117.581 9.83152 117.701 10.5382 117.701 11.2582C117.674 12.6182 117.274 13.8848 116.501 15.0582C115.754 16.2048 114.821 17.1515 113.701 17.8982C113.088 18.3248 112.434 18.6982 111.741 19.0182C111.074 19.3115 110.394 19.5648 109.701 19.7782C109.621 19.8048 109.341 19.8715 108.861 19.9782C108.381 20.0582 107.861 20.1515 107.301 20.2582C106.768 20.3382 106.288 20.4182 105.861 20.4982C105.434 20.5515 105.221 20.5515 105.221 20.4982C105.194 21.1382 105.261 21.7915 105.421 22.4582C105.608 23.0982 105.648 23.7382 105.541 24.3782C105.434 25.0182 105.128 25.5782 104.621 26.0582C104.141 26.5648 103.581 26.8848 102.941 27.0182C102.274 27.1248 101.621 27.0182 100.981 26.6982C100.368 26.4049 99.9011 25.9648 99.5811 25.3782C99.3945 25.0315 99.2611 24.6582 99.1811 24.2582C99.1011 23.8848 99.0345 23.5115 98.9811 23.1382C98.6345 20.3915 98.4078 17.6448 98.3011 14.8982C98.2211 12.1515 98.3145 9.40485 98.5811 6.65818C98.6345 6.33818 98.6745 6.03152 98.7011 5.73818C98.7545 5.41818 98.8611 5.11152 99.0211 4.81818C99.2345 4.36485 99.5545 4.01818 99.9811 3.77818C100.434 3.51152 100.901 3.35152 101.381 3.29818C102.368 3.16485 103.354 3.08485 104.341 3.05818C105.354 3.03152 106.354 3.03152 107.341 3.05818C108.328 3.11152 109.301 3.21818 110.261 3.37818C111.248 3.51152 112.194 3.80485 113.101 4.25818C114.088 4.76485 114.954 5.44485 115.701 6.29818C116.474 7.15152 117.021 8.09818 117.341 9.13818ZM108.821 13.2182C109.248 13.0582 109.648 12.8582 110.021 12.6182C110.421 12.3782 110.754 12.0715 111.021 11.6982C111.128 11.5382 111.181 11.4049 111.181 11.2982C111.234 11.0582 111.141 10.8182 110.901 10.5782C110.634 10.2848 110.314 10.0715 109.941 9.93818C109.594 9.80485 109.234 9.71152 108.861 9.65818C108.221 9.57818 107.581 9.55152 106.941 9.57818C106.301 9.60485 105.674 9.64485 105.061 9.69818C104.981 9.69818 104.928 9.71152 104.901 9.73818C104.901 9.73818 104.874 9.79152 104.821 9.89818C104.794 10.5915 104.781 11.2848 104.781 11.9782C104.781 12.6448 104.781 13.3249 104.781 14.0182C104.781 14.0715 104.941 14.0848 105.261 14.0582C105.608 14.0048 105.994 13.9382 106.421 13.8582C106.848 13.7782 107.234 13.6982 107.581 13.6182C107.954 13.5382 108.181 13.4848 108.261 13.4582C108.368 13.4048 108.461 13.3649 108.541 13.3382C108.621 13.3115 108.714 13.2715 108.821 13.2182Z"/>
<path d="M136.516 21.5382C137.21 22.1782 137.53 22.9515 137.476 23.8582C137.476 24.3915 137.343 24.8982 137.076 25.3782C136.81 25.8582 136.45 26.2449 135.996 26.5382C135.463 26.8582 134.876 27.0182 134.236 27.0182C133.596 27.0448 132.97 27.0582 132.356 27.0582C131.21 27.0582 130.063 27.0448 128.916 27.0182C127.77 27.0182 126.61 27.0182 125.436 27.0182C125.143 27.0182 124.836 27.0049 124.516 26.9782C124.196 26.9515 123.89 26.8715 123.596 26.7382C123.276 26.6049 122.996 26.3915 122.756 26.0982C122.516 25.8048 122.33 25.4982 122.196 25.1782C122.063 24.8315 121.956 24.4715 121.876 24.0982C121.796 23.7515 121.73 23.3915 121.676 23.0182C121.303 20.3515 121.076 17.6982 120.996 15.0582C120.943 12.3915 121.023 9.72485 121.236 7.05818C121.263 6.73818 121.29 6.41818 121.316 6.09818C121.37 5.77818 121.463 5.47152 121.596 5.17818C121.836 4.56485 122.236 4.08485 122.796 3.73818C123.356 3.36485 123.956 3.19152 124.596 3.21818C125.236 3.21818 125.823 3.41818 126.356 3.81818C126.916 4.19152 127.303 4.68485 127.516 5.29818C127.676 5.75152 127.756 6.21818 127.756 6.69818C127.756 7.17818 127.73 7.65818 127.676 8.13818C127.303 12.2982 127.383 16.4448 127.916 20.5782C128.743 20.5515 129.556 20.5382 130.356 20.5382C131.183 20.5382 132.01 20.5382 132.836 20.5382C133.316 20.5382 133.796 20.5515 134.276 20.5782C134.756 20.6048 135.223 20.7248 135.676 20.9382C135.996 21.0982 136.276 21.2982 136.516 21.5382Z"/>
<path d="M155.001 15.6582C155.135 16.8582 155.241 18.0582 155.321 19.2582C155.428 20.4582 155.508 21.6582 155.561 22.8582C155.615 23.4715 155.588 24.0849 155.481 24.6982C155.401 25.3115 155.135 25.8582 154.681 26.3382C154.281 26.7382 153.775 27.0049 153.161 27.1382C152.575 27.2982 152.015 27.2982 151.481 27.1382C150.868 26.9515 150.348 26.6048 149.921 26.0982C149.495 25.6182 149.241 25.0582 149.161 24.4182C148.708 24.4449 148.241 24.4582 147.761 24.4582C147.281 24.4582 146.815 24.4582 146.361 24.4582C146.255 24.4848 146.148 24.4982 146.041 24.4982C145.935 24.4982 145.841 24.5249 145.761 24.5782C145.628 24.6582 145.521 24.7515 145.441 24.8582C145.388 24.9915 145.321 25.1249 145.241 25.2582C145.001 25.7115 144.668 26.0982 144.241 26.4182C143.841 26.7649 143.375 26.9782 142.841 27.0582C142.335 27.1649 141.828 27.1248 141.321 26.9382C140.815 26.7782 140.388 26.5115 140.041 26.1382C139.561 25.6049 139.281 24.9648 139.201 24.2182C139.121 23.4715 139.108 22.7382 139.161 22.0182C139.295 19.8582 139.521 17.7115 139.841 15.5782C140.188 13.4182 140.668 11.2848 141.281 9.17818C141.575 8.13818 141.975 7.12485 142.481 6.13818C142.988 5.12485 143.708 4.33818 144.641 3.77818C145.255 3.40485 145.908 3.16485 146.601 3.05818C147.295 2.95151 147.988 2.99152 148.681 3.17818C149.375 3.33818 150.015 3.61818 150.601 4.01818C151.188 4.39152 151.708 4.85818 152.161 5.41818C152.828 6.21818 153.308 7.12485 153.601 8.13818C153.921 9.15152 154.175 10.1648 154.361 11.1782C154.495 11.9249 154.615 12.6715 154.721 13.4182C154.828 14.1382 154.921 14.8848 155.001 15.6582ZM148.761 17.9382C148.708 17.4848 148.655 17.0182 148.601 16.5382C148.575 16.0582 148.535 15.5915 148.481 15.1382L148.001 12.2582C147.948 11.9915 147.895 11.7248 147.841 11.4582C147.788 11.1915 147.721 10.9115 147.641 10.6182C147.641 10.6448 147.628 10.6715 147.601 10.6982C147.601 10.6982 147.601 10.7248 147.601 10.7782C147.228 11.9782 146.908 13.1782 146.641 14.3782C146.401 15.5782 146.188 16.8048 146.001 18.0582C146.908 17.9782 147.828 17.9382 148.761 17.9382Z"/>
<path d="M175.197 20.6582C175.49 21.3782 175.504 22.0982 175.237 22.8182C174.97 23.5382 174.544 24.1649 173.957 24.6982C173.184 25.3648 172.344 25.9115 171.437 26.3382C170.53 26.7915 169.57 27.0849 168.557 27.2182C167.384 27.3782 166.21 27.3115 165.037 27.0182C163.89 26.7515 162.85 26.2715 161.917 25.5782C161.197 25.0449 160.57 24.4049 160.037 23.6582C159.504 22.9382 159.064 22.1515 158.717 21.2982C158.37 20.4449 158.117 19.5782 157.957 18.6982C157.797 17.8182 157.69 16.9115 157.637 15.9782C157.584 14.6182 157.677 13.2715 157.917 11.9382C158.157 10.6048 158.61 9.33818 159.277 8.13818C159.944 6.93818 160.81 5.89818 161.877 5.01818C162.97 4.13818 164.197 3.59152 165.557 3.37818C166.944 3.16485 168.304 3.33818 169.637 3.89818C170.997 4.45818 172.09 5.32485 172.917 6.49818C173.21 6.87152 173.437 7.29818 173.597 7.77818C173.784 8.23152 173.864 8.69818 173.837 9.17818C173.81 9.87152 173.57 10.5115 173.117 11.0982C172.664 11.6848 172.09 12.0582 171.397 12.2182C170.704 12.3782 170.024 12.3115 169.357 12.0182C168.69 11.7248 168.184 11.2715 167.837 10.6582C167.757 10.5248 167.677 10.4049 167.597 10.2982C167.544 10.1648 167.464 10.0582 167.357 9.97818C167.117 9.79152 166.837 9.73818 166.517 9.81818C166.197 9.89818 165.93 10.0448 165.717 10.2582C165.264 10.6315 164.917 11.1115 164.677 11.6982C164.464 12.2582 164.317 12.8315 164.237 13.4182C163.997 14.9115 164.064 16.4448 164.437 18.0182C164.57 18.5248 164.757 19.0049 164.997 19.4582C165.237 19.9115 165.584 20.2715 166.037 20.5382C166.41 20.7515 166.837 20.8582 167.317 20.8582C167.797 20.8315 168.237 20.7115 168.637 20.4982C169.037 20.2848 169.397 20.0448 169.717 19.7782C170.064 19.4848 170.437 19.2315 170.837 19.0182C171.504 18.6982 172.21 18.6315 172.957 18.8182C173.704 18.9782 174.304 19.3515 174.757 19.9382C174.837 20.0715 174.917 20.1915 174.997 20.2982C175.077 20.4049 175.144 20.5249 175.197 20.6582Z"/>
<path d="M193.188 21.6182C193.641 22.0715 193.921 22.5648 194.028 23.0982C194.188 23.6582 194.161 24.2449 193.948 24.8582C193.761 25.4982 193.441 26.0049 192.988 26.3782C192.534 26.7515 192.001 26.9648 191.388 27.0182C190.801 27.0982 190.228 27.1515 189.668 27.1782C188.548 27.2049 187.428 27.2182 186.308 27.2182C185.188 27.2449 184.068 27.2582 182.948 27.2582C182.601 27.2849 182.254 27.2849 181.908 27.2582C181.588 27.2582 181.254 27.1915 180.908 27.0582C180.534 26.9249 180.188 26.7248 179.868 26.4582C179.574 26.1915 179.348 25.8715 179.188 25.4982C179.054 25.2582 178.961 25.0049 178.908 24.7382C178.881 24.4715 178.841 24.1915 178.788 23.8982C178.414 21.1515 178.174 18.4049 178.068 15.6582C177.961 12.8848 178.028 10.1115 178.268 7.33818C178.321 6.80485 178.401 6.27152 178.508 5.73818C178.641 5.20485 178.908 4.75152 179.308 4.37818C179.601 4.08485 179.948 3.88485 180.348 3.77818C180.774 3.64485 181.201 3.55152 181.628 3.49818C184.268 3.04485 186.961 2.92485 189.708 3.13818C190.028 3.16485 190.348 3.20485 190.668 3.25818C191.014 3.28485 191.348 3.36485 191.668 3.49818C192.281 3.76485 192.761 4.21818 193.108 4.85818C193.481 5.47152 193.628 6.11152 193.548 6.77818C193.468 7.47152 193.188 8.08485 192.708 8.61818C192.228 9.12485 191.654 9.44485 190.988 9.57818C190.641 9.63152 190.294 9.65818 189.948 9.65818C189.628 9.65818 189.294 9.63152 188.948 9.57818C188.228 9.52485 187.494 9.51152 186.748 9.53818C186.028 9.53818 185.308 9.56485 184.588 9.61818C184.561 10.0715 184.548 10.5248 184.548 10.9782C184.548 11.4315 184.534 11.8848 184.508 12.3382C185.254 12.3915 186.001 12.3782 186.748 12.2982C187.494 12.1915 188.214 12.2848 188.908 12.5782C189.494 12.8448 189.961 13.2715 190.308 13.8582C190.681 14.4448 190.854 15.0582 190.828 15.6982C190.774 16.3649 190.534 16.9649 190.108 17.4982C189.681 18.0315 189.161 18.4049 188.548 18.6182C187.934 18.8048 187.294 18.8582 186.628 18.7782C185.988 18.6982 185.361 18.7115 184.748 18.8182C184.774 19.1382 184.801 19.4582 184.828 19.7782C184.854 20.0982 184.881 20.4182 184.908 20.7382C185.761 20.7382 186.588 20.7382 187.388 20.7382C188.214 20.7115 189.054 20.6849 189.908 20.6582C190.254 20.6582 190.588 20.6715 190.908 20.6982C191.254 20.6982 191.588 20.7515 191.908 20.8582C192.361 20.9648 192.788 21.2182 193.188 21.6182Z"/>
</mask>
<path d="M22.0677 9.13818C22.3077 9.83152 22.4277 10.5382 22.4277 11.2582C22.401 12.6182 22.001 13.8848 21.2277 15.0582C20.481 16.2048 19.5477 17.1515 18.4277 17.8982C17.8144 18.3248 17.161 18.6982 16.4677 19.0182C15.801 19.3115 15.121 19.5648 14.4277 19.7782C14.3477 19.8048 14.0677 19.8715 13.5877 19.9782C13.1077 20.0582 12.5877 20.1515 12.0277 20.2582C11.4944 20.3382 11.0144 20.4182 10.5877 20.4982C10.161 20.5515 9.94769 20.5515 9.94769 20.4982C9.92103 21.1382 9.98769 21.7915 10.1477 22.4582C10.3344 23.0982 10.3744 23.7382 10.2677 24.3782C10.161 25.0182 9.85436 25.5782 9.34769 26.0582C8.86769 26.5648 8.30769 26.8848 7.66769 27.0182C7.00103 27.1248 6.34769 27.0182 5.70769 26.6982C5.09436 26.4049 4.62769 25.9648 4.30769 25.3782C4.12103 25.0315 3.98769 24.6582 3.90769 24.2582C3.82769 23.8848 3.76103 23.5115 3.70769 23.1382C3.36103 20.3915 3.13436 17.6448 3.02769 14.8982C2.94769 12.1515 3.04103 9.40485 3.30769 6.65818C3.36103 6.33818 3.40103 6.03152 3.42769 5.73818C3.48103 5.41818 3.58769 5.11152 3.74769 4.81818C3.96103 4.36485 4.28103 4.01818 4.70769 3.77818C5.16103 3.51152 5.62769 3.35152 6.10769 3.29818C7.09436 3.16485 8.08103 3.08485 9.06769 3.05818C10.081 3.03152 11.081 3.03152 12.0677 3.05818C13.0544 3.11152 14.0277 3.21818 14.9877 3.37818C15.9744 3.51152 16.921 3.80485 17.8277 4.25818C18.8144 4.76485 19.681 5.44485 20.4277 6.29818C21.201 7.15152 21.7477 8.09818 22.0677 9.13818ZM13.5477 13.2182C13.9744 13.0582 14.3744 12.8582 14.7477 12.6182C15.1477 12.3782 15.481 12.0715 15.7477 11.6982C15.8544 11.5382 15.9077 11.4049 15.9077 11.2982C15.961 11.0582 15.8677 10.8182 15.6277 10.5782C15.361 10.2848 15.041 10.0715 14.6677 9.93818C14.321 9.80485 13.961 9.71152 13.5877 9.65818C12.9477 9.57818 12.3077 9.55152 11.6677 9.57818C11.0277 9.60485 10.401 9.64485 9.78769 9.69818C9.70769 9.69818 9.65436 9.71152 9.62769 9.73818C9.62769 9.73818 9.60103 9.79152 9.54769 9.89818C9.52103 10.5915 9.50769 11.2848 9.50769 11.9782C9.50769 12.6448 9.50769 13.3249 9.50769 14.0182C9.50769 14.0715 9.66769 14.0848 9.98769 14.0582C10.3344 14.0048 10.721 13.9382 11.1477 13.8582C11.5744 13.7782 11.961 13.6982 12.3077 13.6182C12.681 13.5382 12.9077 13.4848 12.9877 13.4582C13.0944 13.4048 13.1877 13.3649 13.2677 13.3382C13.3477 13.3115 13.441 13.2715 13.5477 13.2182Z" fill="white"/>
<path d="M39.6108 15.6582C39.7441 16.8582 39.8508 18.0582 39.9308 19.2582C40.0375 20.4582 40.1175 21.6582 40.1708 22.8582C40.2242 23.4715 40.1975 24.0849 40.0908 24.6982C40.0108 25.3115 39.7442 25.8582 39.2908 26.3382C38.8908 26.7382 38.3842 27.0049 37.7708 27.1382C37.1842 27.2982 36.6241 27.2982 36.0908 27.1382C35.4775 26.9515 34.9575 26.6048 34.5308 26.0982C34.1042 25.6182 33.8508 25.0582 33.7708 24.4182C33.3175 24.4449 32.8508 24.4582 32.3708 24.4582C31.8908 24.4582 31.4242 24.4582 30.9708 24.4582C30.8642 24.4848 30.7575 24.4982 30.6508 24.4982C30.5442 24.4982 30.4508 24.5249 30.3708 24.5782C30.2375 24.6582 30.1308 24.7515 30.0508 24.8582C29.9975 24.9915 29.9308 25.1249 29.8508 25.2582C29.6108 25.7115 29.2775 26.0982 28.8508 26.4182C28.4508 26.7649 27.9841 26.9782 27.4508 27.0582C26.9442 27.1649 26.4375 27.1248 25.9308 26.9382C25.4242 26.7782 24.9975 26.5115 24.6508 26.1382C24.1708 25.6049 23.8908 24.9648 23.8108 24.2182C23.7308 23.4715 23.7175 22.7382 23.7708 22.0182C23.9042 19.8582 24.1308 17.7115 24.4508 15.5782C24.7975 13.4182 25.2775 11.2848 25.8908 9.17818C26.1842 8.13818 26.5842 7.12485 27.0908 6.13818C27.5975 5.12485 28.3175 4.33818 29.2508 3.77818C29.8642 3.40485 30.5175 3.16485 31.2108 3.05818C31.9042 2.95151 32.5975 2.99152 33.2908 3.17818C33.9841 3.33818 34.6241 3.61818 35.2108 4.01818C35.7975 4.39152 36.3175 4.85818 36.7708 5.41818C37.4375 6.21818 37.9175 7.12485 38.2108 8.13818C38.5308 9.15152 38.7841 10.1648 38.9708 11.1782C39.1041 11.9249 39.2242 12.6715 39.3308 13.4182C39.4375 14.1382 39.5308 14.8848 39.6108 15.6582ZM33.3708 17.9382C33.3175 17.4848 33.2642 17.0182 33.2108 16.5382C33.1842 16.0582 33.1442 15.5915 33.0908 15.1382L32.6108 12.2582C32.5575 11.9915 32.5042 11.7248 32.4508 11.4582C32.3975 11.1915 32.3308 10.9115 32.2508 10.6182C32.2508 10.6448 32.2375 10.6715 32.2108 10.6982C32.2108 10.6982 32.2108 10.7248 32.2108 10.7782C31.8375 11.9782 31.5175 13.1782 31.2508 14.3782C31.0108 15.5782 30.7975 16.8048 30.6108 18.0582C31.5175 17.9782 32.4375 17.9382 33.3708 17.9382Z" fill="white"/>
<path d="M65.4064 5.09818C65.5398 5.41818 65.6198 5.73818 65.6464 6.05818C65.6998 6.37818 65.7398 6.71152 65.7664 7.05818C66.1664 12.0982 66.0064 17.1248 65.2864 22.1382C65.2331 22.6715 65.1398 23.1915 65.0064 23.6982C64.8998 24.2315 64.7131 24.7248 64.4464 25.1782C64.1531 25.7115 63.7531 26.1649 63.2464 26.5382C62.7398 26.9382 62.1798 27.2048 61.5664 27.3382C60.9531 27.4715 60.3264 27.4582 59.6864 27.2982C59.0731 27.1382 58.5264 26.8449 58.0464 26.4182C57.6731 26.0982 57.3531 25.7248 57.0864 25.2982C56.8198 24.8715 56.5798 24.4315 56.3664 23.9782C55.9664 23.2049 55.5664 22.4448 55.1664 21.6982C54.7931 20.9515 54.4064 20.1915 54.0064 19.4182C53.6331 20.0582 53.2998 20.7248 53.0064 21.4182C52.7131 22.0848 52.3798 22.7382 52.0064 23.3782C51.6331 24.0448 51.2064 24.6582 50.7264 25.2182C50.2731 25.8048 49.7131 26.2849 49.0464 26.6582C48.4331 26.9782 47.8064 27.1382 47.1664 27.1382C46.5264 27.1649 45.9131 27.0582 45.3264 26.8182C44.7398 26.5782 44.2198 26.2182 43.7664 25.7382C43.3131 25.2582 42.9798 24.6982 42.7664 24.0582C42.5798 23.5249 42.4598 22.9915 42.4064 22.4582C42.3798 21.8982 42.3531 21.3382 42.3264 20.7782C42.2464 18.5382 42.2198 16.3115 42.2464 14.0982C42.2998 11.8848 42.4198 9.65818 42.6064 7.41818C42.6598 6.96485 42.7264 6.52485 42.8064 6.09818C42.8864 5.64485 43.0331 5.21818 43.2464 4.81818C43.5398 4.31152 43.9531 3.91152 44.4864 3.61818C45.0464 3.32485 45.6331 3.20485 46.2464 3.25818C46.8331 3.31152 47.3664 3.52485 47.8464 3.89818C48.3264 4.27152 48.6731 4.73818 48.8864 5.29818C49.0464 5.69818 49.1264 6.12485 49.1264 6.57818C49.1531 7.00485 49.1531 7.44485 49.1264 7.89818C49.0464 9.17818 48.9664 10.4448 48.8864 11.6982C48.8064 12.9515 48.7264 14.2182 48.6464 15.4982C49.0998 14.9648 49.4598 14.3648 49.7264 13.6982C49.9931 13.0048 50.2864 12.3515 50.6064 11.7382C50.9264 11.0982 51.3398 10.5115 51.8464 9.97818C52.3798 9.44485 52.9931 9.15152 53.6864 9.09818C54.4598 9.04485 55.1664 9.28485 55.8064 9.81818C56.4464 10.3248 56.9531 10.9248 57.3264 11.6182C57.6998 12.3115 58.0198 13.0315 58.2864 13.7782C58.5798 14.4982 58.9664 15.1648 59.4464 15.7782C59.5798 13.2448 59.5398 10.7115 59.3264 8.17818C59.2731 7.67152 59.2331 7.16485 59.2064 6.65818C59.1798 6.12485 59.2731 5.63152 59.4864 5.17818C59.6998 4.59152 60.0731 4.11152 60.6064 3.73818C61.1398 3.33818 61.7131 3.12485 62.3264 3.09818C62.9398 3.07152 63.5264 3.23152 64.0864 3.57818C64.6464 3.92485 65.0598 4.37818 65.3264 4.93818C65.3798 5.04485 65.4064 5.09818 65.4064 5.09818Z" fill="white"/>
<path d="M85.1327 19.0582C85.3994 19.8848 85.4527 20.6715 85.2927 21.4182C85.0794 22.4315 84.6127 23.3115 83.8927 24.0582C83.1727 24.8048 82.3594 25.4049 81.4527 25.8582C80.386 26.3915 79.2527 26.7515 78.0527 26.9382C76.8794 27.1515 75.6927 27.2182 74.4927 27.1382C74.0127 27.1115 73.4927 27.0582 72.9327 26.9782C72.3994 26.8982 71.8794 26.7649 71.3727 26.5782C70.866 26.3915 70.3994 26.1382 69.9727 25.8182C69.5727 25.4982 69.266 25.0849 69.0527 24.5782C68.8394 24.1249 68.7594 23.6448 68.8127 23.1382C68.866 22.6315 69.026 22.1649 69.2927 21.7382C69.5594 21.3115 69.906 20.9648 70.3327 20.6982C70.786 20.4315 71.266 20.2715 71.7727 20.2182C72.306 20.1649 72.8394 20.2182 73.3727 20.3782C73.906 20.5115 74.4394 20.6049 74.9727 20.6582C76.0927 20.7915 77.1594 20.6315 78.1727 20.1782C77.506 19.6715 76.7994 19.2582 76.0527 18.9382C75.306 18.5915 74.546 18.2315 73.7727 17.8582C72.9994 17.4848 72.2527 17.0715 71.5327 16.6182C70.8394 16.1648 70.2527 15.5915 69.7727 14.8982C69.2127 14.1248 68.8527 13.2582 68.6927 12.2982C68.5594 11.3115 68.6394 10.3515 68.9327 9.41818C69.1994 8.48485 69.6394 7.64485 70.2527 6.89818C70.866 6.12485 71.586 5.48485 72.4127 4.97818C73.2394 4.49818 74.1194 4.13818 75.0527 3.89818C76.0127 3.65818 76.9727 3.55152 77.9327 3.57818C78.5727 3.60485 79.2127 3.68485 79.8527 3.81818C80.4927 3.95152 81.106 4.16485 81.6927 4.45818C82.2794 4.77818 82.786 5.19152 83.2127 5.69818C83.666 6.17818 83.986 6.73818 84.1727 7.37818C84.3594 7.99152 84.3727 8.63152 84.2127 9.29818C84.0527 9.96485 83.7327 10.5248 83.2527 10.9782C82.9327 11.2715 82.5594 11.4848 82.1327 11.6182C81.7327 11.7248 81.3194 11.7648 80.8927 11.7382C80.4927 11.7115 80.0927 11.6182 79.6927 11.4582C79.2927 11.2715 78.9594 11.0182 78.6927 10.6982C78.586 10.5915 78.4927 10.4848 78.4127 10.3782C78.3327 10.2715 78.226 10.1915 78.0927 10.1382C77.8794 10.0315 77.5994 10.0315 77.2527 10.1382C76.826 10.1915 76.3994 10.2982 75.9727 10.4582C75.5727 10.5915 75.2927 10.8448 75.1327 11.2182C75.8794 11.6715 76.6394 12.0848 77.4127 12.4582C78.186 12.8048 78.9594 13.1782 79.7327 13.5782C80.506 13.9515 81.2527 14.3915 81.9727 14.8982C82.6927 15.3782 83.3194 15.9515 83.8527 16.6182C84.466 17.3382 84.8927 18.1515 85.1327 19.0582Z" fill="white"/>
<path d="M92.9068 27.2182C92.8001 27.2182 92.7068 27.2049 92.6268 27.1782C92.5468 27.1782 92.4534 27.1649 92.3468 27.1382C91.6801 27.0315 91.0934 26.7248 90.5868 26.2182C90.1068 25.7115 89.8134 25.1115 89.7068 24.4182C89.6001 23.7515 89.7068 23.0982 90.0268 22.4582C90.3734 21.8182 90.8534 21.3515 91.4668 21.0582C92.0801 20.7649 92.7334 20.6849 93.4268 20.8182C94.1468 20.9249 94.7467 21.2182 95.2268 21.6982C95.7334 22.2048 96.0134 22.7782 96.0668 23.4182C96.1468 24.0582 96.0667 24.6582 95.8268 25.2182C95.5868 25.7782 95.2001 26.2449 94.6668 26.6182C94.1601 27.0182 93.5734 27.2182 92.9068 27.2182Z" fill="white"/>
<path d="M117.341 9.13818C117.581 9.83152 117.701 10.5382 117.701 11.2582C117.674 12.6182 117.274 13.8848 116.501 15.0582C115.754 16.2048 114.821 17.1515 113.701 17.8982C113.088 18.3248 112.434 18.6982 111.741 19.0182C111.074 19.3115 110.394 19.5648 109.701 19.7782C109.621 19.8048 109.341 19.8715 108.861 19.9782C108.381 20.0582 107.861 20.1515 107.301 20.2582C106.768 20.3382 106.288 20.4182 105.861 20.4982C105.434 20.5515 105.221 20.5515 105.221 20.4982C105.194 21.1382 105.261 21.7915 105.421 22.4582C105.608 23.0982 105.648 23.7382 105.541 24.3782C105.434 25.0182 105.128 25.5782 104.621 26.0582C104.141 26.5648 103.581 26.8848 102.941 27.0182C102.274 27.1248 101.621 27.0182 100.981 26.6982C100.368 26.4049 99.9011 25.9648 99.5811 25.3782C99.3945 25.0315 99.2611 24.6582 99.1811 24.2582C99.1011 23.8848 99.0345 23.5115 98.9811 23.1382C98.6345 20.3915 98.4078 17.6448 98.3011 14.8982C98.2211 12.1515 98.3145 9.40485 98.5811 6.65818C98.6345 6.33818 98.6745 6.03152 98.7011 5.73818C98.7545 5.41818 98.8611 5.11152 99.0211 4.81818C99.2345 4.36485 99.5545 4.01818 99.9811 3.77818C100.434 3.51152 100.901 3.35152 101.381 3.29818C102.368 3.16485 103.354 3.08485 104.341 3.05818C105.354 3.03152 106.354 3.03152 107.341 3.05818C108.328 3.11152 109.301 3.21818 110.261 3.37818C111.248 3.51152 112.194 3.80485 113.101 4.25818C114.088 4.76485 114.954 5.44485 115.701 6.29818C116.474 7.15152 117.021 8.09818 117.341 9.13818ZM108.821 13.2182C109.248 13.0582 109.648 12.8582 110.021 12.6182C110.421 12.3782 110.754 12.0715 111.021 11.6982C111.128 11.5382 111.181 11.4049 111.181 11.2982C111.234 11.0582 111.141 10.8182 110.901 10.5782C110.634 10.2848 110.314 10.0715 109.941 9.93818C109.594 9.80485 109.234 9.71152 108.861 9.65818C108.221 9.57818 107.581 9.55152 106.941 9.57818C106.301 9.60485 105.674 9.64485 105.061 9.69818C104.981 9.69818 104.928 9.71152 104.901 9.73818C104.901 9.73818 104.874 9.79152 104.821 9.89818C104.794 10.5915 104.781 11.2848 104.781 11.9782C104.781 12.6448 104.781 13.3249 104.781 14.0182C104.781 14.0715 104.941 14.0848 105.261 14.0582C105.608 14.0048 105.994 13.9382 106.421 13.8582C106.848 13.7782 107.234 13.6982 107.581 13.6182C107.954 13.5382 108.181 13.4848 108.261 13.4582C108.368 13.4048 108.461 13.3649 108.541 13.3382C108.621 13.3115 108.714 13.2715 108.821 13.2182Z" fill="white"/>
<path d="M136.516 21.5382C137.21 22.1782 137.53 22.9515 137.476 23.8582C137.476 24.3915 137.343 24.8982 137.076 25.3782C136.81 25.8582 136.45 26.2449 135.996 26.5382C135.463 26.8582 134.876 27.0182 134.236 27.0182C133.596 27.0448 132.97 27.0582 132.356 27.0582C131.21 27.0582 130.063 27.0448 128.916 27.0182C127.77 27.0182 126.61 27.0182 125.436 27.0182C125.143 27.0182 124.836 27.0049 124.516 26.9782C124.196 26.9515 123.89 26.8715 123.596 26.7382C123.276 26.6049 122.996 26.3915 122.756 26.0982C122.516 25.8048 122.33 25.4982 122.196 25.1782C122.063 24.8315 121.956 24.4715 121.876 24.0982C121.796 23.7515 121.73 23.3915 121.676 23.0182C121.303 20.3515 121.076 17.6982 120.996 15.0582C120.943 12.3915 121.023 9.72485 121.236 7.05818C121.263 6.73818 121.29 6.41818 121.316 6.09818C121.37 5.77818 121.463 5.47152 121.596 5.17818C121.836 4.56485 122.236 4.08485 122.796 3.73818C123.356 3.36485 123.956 3.19152 124.596 3.21818C125.236 3.21818 125.823 3.41818 126.356 3.81818C126.916 4.19152 127.303 4.68485 127.516 5.29818C127.676 5.75152 127.756 6.21818 127.756 6.69818C127.756 7.17818 127.73 7.65818 127.676 8.13818C127.303 12.2982 127.383 16.4448 127.916 20.5782C128.743 20.5515 129.556 20.5382 130.356 20.5382C131.183 20.5382 132.01 20.5382 132.836 20.5382C133.316 20.5382 133.796 20.5515 134.276 20.5782C134.756 20.6048 135.223 20.7248 135.676 20.9382C135.996 21.0982 136.276 21.2982 136.516 21.5382Z" fill="white"/>
<path d="M155.001 15.6582C155.135 16.8582 155.241 18.0582 155.321 19.2582C155.428 20.4582 155.508 21.6582 155.561 22.8582C155.615 23.4715 155.588 24.0849 155.481 24.6982C155.401 25.3115 155.135 25.8582 154.681 26.3382C154.281 26.7382 153.775 27.0049 153.161 27.1382C152.575 27.2982 152.015 27.2982 151.481 27.1382C150.868 26.9515 150.348 26.6048 149.921 26.0982C149.495 25.6182 149.241 25.0582 149.161 24.4182C148.708 24.4449 148.241 24.4582 147.761 24.4582C147.281 24.4582 146.815 24.4582 146.361 24.4582C146.255 24.4848 146.148 24.4982 146.041 24.4982C145.935 24.4982 145.841 24.5249 145.761 24.5782C145.628 24.6582 145.521 24.7515 145.441 24.8582C145.388 24.9915 145.321 25.1249 145.241 25.2582C145.001 25.7115 144.668 26.0982 144.241 26.4182C143.841 26.7649 143.375 26.9782 142.841 27.0582C142.335 27.1649 141.828 27.1248 141.321 26.9382C140.815 26.7782 140.388 26.5115 140.041 26.1382C139.561 25.6049 139.281 24.9648 139.201 24.2182C139.121 23.4715 139.108 22.7382 139.161 22.0182C139.295 19.8582 139.521 17.7115 139.841 15.5782C140.188 13.4182 140.668 11.2848 141.281 9.17818C141.575 8.13818 141.975 7.12485 142.481 6.13818C142.988 5.12485 143.708 4.33818 144.641 3.77818C145.255 3.40485 145.908 3.16485 146.601 3.05818C147.295 2.95151 147.988 2.99152 148.681 3.17818C149.375 3.33818 150.015 3.61818 150.601 4.01818C151.188 4.39152 151.708 4.85818 152.161 5.41818C152.828 6.21818 153.308 7.12485 153.601 8.13818C153.921 9.15152 154.175 10.1648 154.361 11.1782C154.495 11.9249 154.615 12.6715 154.721 13.4182C154.828 14.1382 154.921 14.8848 155.001 15.6582ZM148.761 17.9382C148.708 17.4848 148.655 17.0182 148.601 16.5382C148.575 16.0582 148.535 15.5915 148.481 15.1382L148.001 12.2582C147.948 11.9915 147.895 11.7248 147.841 11.4582C147.788 11.1915 147.721 10.9115 147.641 10.6182C147.641 10.6448 147.628 10.6715 147.601 10.6982C147.601 10.6982 147.601 10.7248 147.601 10.7782C147.228 11.9782 146.908 13.1782 146.641 14.3782C146.401 15.5782 146.188 16.8048 146.001 18.0582C146.908 17.9782 147.828 17.9382 148.761 17.9382Z" fill="white"/>
<path d="M175.197 20.6582C175.49 21.3782 175.504 22.0982 175.237 22.8182C174.97 23.5382 174.544 24.1649 173.957 24.6982C173.184 25.3648 172.344 25.9115 171.437 26.3382C170.53 26.7915 169.57 27.0849 168.557 27.2182C167.384 27.3782 166.21 27.3115 165.037 27.0182C163.89 26.7515 162.85 26.2715 161.917 25.5782C161.197 25.0449 160.57 24.4049 160.037 23.6582C159.504 22.9382 159.064 22.1515 158.717 21.2982C158.37 20.4449 158.117 19.5782 157.957 18.6982C157.797 17.8182 157.69 16.9115 157.637 15.9782C157.584 14.6182 157.677 13.2715 157.917 11.9382C158.157 10.6048 158.61 9.33818 159.277 8.13818C159.944 6.93818 160.81 5.89818 161.877 5.01818C162.97 4.13818 164.197 3.59152 165.557 3.37818C166.944 3.16485 168.304 3.33818 169.637 3.89818C170.997 4.45818 172.09 5.32485 172.917 6.49818C173.21 6.87152 173.437 7.29818 173.597 7.77818C173.784 8.23152 173.864 8.69818 173.837 9.17818C173.81 9.87152 173.57 10.5115 173.117 11.0982C172.664 11.6848 172.09 12.0582 171.397 12.2182C170.704 12.3782 170.024 12.3115 169.357 12.0182C168.69 11.7248 168.184 11.2715 167.837 10.6582C167.757 10.5248 167.677 10.4049 167.597 10.2982C167.544 10.1648 167.464 10.0582 167.357 9.97818C167.117 9.79152 166.837 9.73818 166.517 9.81818C166.197 9.89818 165.93 10.0448 165.717 10.2582C165.264 10.6315 164.917 11.1115 164.677 11.6982C164.464 12.2582 164.317 12.8315 164.237 13.4182C163.997 14.9115 164.064 16.4448 164.437 18.0182C164.57 18.5248 164.757 19.0049 164.997 19.4582C165.237 19.9115 165.584 20.2715 166.037 20.5382C166.41 20.7515 166.837 20.8582 167.317 20.8582C167.797 20.8315 168.237 20.7115 168.637 20.4982C169.037 20.2848 169.397 20.0448 169.717 19.7782C170.064 19.4848 170.437 19.2315 170.837 19.0182C171.504 18.6982 172.21 18.6315 172.957 18.8182C173.704 18.9782 174.304 19.3515 174.757 19.9382C174.837 20.0715 174.917 20.1915 174.997 20.2982C175.077 20.4049 175.144 20.5249 175.197 20.6582Z" fill="white"/>
<path d="M193.188 21.6182C193.641 22.0715 193.921 22.5648 194.028 23.0982C194.188 23.6582 194.161 24.2449 193.948 24.8582C193.761 25.4982 193.441 26.0049 192.988 26.3782C192.534 26.7515 192.001 26.9648 191.388 27.0182C190.801 27.0982 190.228 27.1515 189.668 27.1782C188.548 27.2049 187.428 27.2182 186.308 27.2182C185.188 27.2449 184.068 27.2582 182.948 27.2582C182.601 27.2849 182.254 27.2849 181.908 27.2582C181.588 27.2582 181.254 27.1915 180.908 27.0582C180.534 26.9249 180.188 26.7248 179.868 26.4582C179.574 26.1915 179.348 25.8715 179.188 25.4982C179.054 25.2582 178.961 25.0049 178.908 24.7382C178.881 24.4715 178.841 24.1915 178.788 23.8982C178.414 21.1515 178.174 18.4049 178.068 15.6582C177.961 12.8848 178.028 10.1115 178.268 7.33818C178.321 6.80485 178.401 6.27152 178.508 5.73818C178.641 5.20485 178.908 4.75152 179.308 4.37818C179.601 4.08485 179.948 3.88485 180.348 3.77818C180.774 3.64485 181.201 3.55152 181.628 3.49818C184.268 3.04485 186.961 2.92485 189.708 3.13818C190.028 3.16485 190.348 3.20485 190.668 3.25818C191.014 3.28485 191.348 3.36485 191.668 3.49818C192.281 3.76485 192.761 4.21818 193.108 4.85818C193.481 5.47152 193.628 6.11152 193.548 6.77818C193.468 7.47152 193.188 8.08485 192.708 8.61818C192.228 9.12485 191.654 9.44485 190.988 9.57818C190.641 9.63152 190.294 9.65818 189.948 9.65818C189.628 9.65818 189.294 9.63152 188.948 9.57818C188.228 9.52485 187.494 9.51152 186.748 9.53818C186.028 9.53818 185.308 9.56485 184.588 9.61818C184.561 10.0715 184.548 10.5248 184.548 10.9782C184.548 11.4315 184.534 11.8848 184.508 12.3382C185.254 12.3915 186.001 12.3782 186.748 12.2982C187.494 12.1915 188.214 12.2848 188.908 12.5782C189.494 12.8448 189.961 13.2715 190.308 13.8582C190.681 14.4448 190.854 15.0582 190.828 15.6982C190.774 16.3649 190.534 16.9649 190.108 17.4982C189.681 18.0315 189.161 18.4049 188.548 18.6182C187.934 18.8048 187.294 18.8582 186.628 18.7782C185.988 18.6982 185.361 18.7115 184.748 18.8182C184.774 19.1382 184.801 19.4582 184.828 19.7782C184.854 20.0982 184.881 20.4182 184.908 20.7382C185.761 20.7382 186.588 20.7382 187.388 20.7382C188.214 20.7115 189.054 20.6849 189.908 20.6582C190.254 20.6582 190.588 20.6715 190.908 20.6982C191.254 20.6982 191.588 20.7515 191.908 20.8582C192.361 20.9648 192.788 21.2182 193.188 21.6182Z" fill="white"/>
<path d="M22.0677 9.13818C22.3077 9.83152 22.4277 10.5382 22.4277 11.2582C22.401 12.6182 22.001 13.8848 21.2277 15.0582C20.481 16.2048 19.5477 17.1515 18.4277 17.8982C17.8144 18.3248 17.161 18.6982 16.4677 19.0182C15.801 19.3115 15.121 19.5648 14.4277 19.7782C14.3477 19.8048 14.0677 19.8715 13.5877 19.9782C13.1077 20.0582 12.5877 20.1515 12.0277 20.2582C11.4944 20.3382 11.0144 20.4182 10.5877 20.4982C10.161 20.5515 9.94769 20.5515 9.94769 20.4982C9.92103 21.1382 9.98769 21.7915 10.1477 22.4582C10.3344 23.0982 10.3744 23.7382 10.2677 24.3782C10.161 25.0182 9.85436 25.5782 9.34769 26.0582C8.86769 26.5648 8.30769 26.8848 7.66769 27.0182C7.00103 27.1248 6.34769 27.0182 5.70769 26.6982C5.09436 26.4049 4.62769 25.9648 4.30769 25.3782C4.12103 25.0315 3.98769 24.6582 3.90769 24.2582C3.82769 23.8848 3.76103 23.5115 3.70769 23.1382C3.36103 20.3915 3.13436 17.6448 3.02769 14.8982C2.94769 12.1515 3.04103 9.40485 3.30769 6.65818C3.36103 6.33818 3.40103 6.03152 3.42769 5.73818C3.48103 5.41818 3.58769 5.11152 3.74769 4.81818C3.96103 4.36485 4.28103 4.01818 4.70769 3.77818C5.16103 3.51152 5.62769 3.35152 6.10769 3.29818C7.09436 3.16485 8.08103 3.08485 9.06769 3.05818C10.081 3.03152 11.081 3.03152 12.0677 3.05818C13.0544 3.11152 14.0277 3.21818 14.9877 3.37818C15.9744 3.51152 16.921 3.80485 17.8277 4.25818C18.8144 4.76485 19.681 5.44485 20.4277 6.29818C21.201 7.15152 21.7477 8.09818 22.0677 9.13818ZM13.5477 13.2182C13.9744 13.0582 14.3744 12.8582 14.7477 12.6182C15.1477 12.3782 15.481 12.0715 15.7477 11.6982C15.8544 11.5382 15.9077 11.4049 15.9077 11.2982C15.961 11.0582 15.8677 10.8182 15.6277 10.5782C15.361 10.2848 15.041 10.0715 14.6677 9.93818C14.321 9.80485 13.961 9.71152 13.5877 9.65818C12.9477 9.57818 12.3077 9.55152 11.6677 9.57818C11.0277 9.60485 10.401 9.64485 9.78769 9.69818C9.70769 9.69818 9.65436 9.71152 9.62769 9.73818C9.62769 9.73818 9.60103 9.79152 9.54769 9.89818C9.52103 10.5915 9.50769 11.2848 9.50769 11.9782C9.50769 12.6448 9.50769 13.3249 9.50769 14.0182C9.50769 14.0715 9.66769 14.0848 9.98769 14.0582C10.3344 14.0048 10.721 13.9382 11.1477 13.8582C11.5744 13.7782 11.961 13.6982 12.3077 13.6182C12.681 13.5382 12.9077 13.4848 12.9877 13.4582C13.0944 13.4048 13.1877 13.3649 13.2677 13.3382C13.3477 13.3115 13.441 13.2715 13.5477 13.2182Z" stroke="#6F0C88" stroke-width="6" mask="url(#path-1-outside-1_0_1)"/>
<path d="M39.6108 15.6582C39.7441 16.8582 39.8508 18.0582 39.9308 19.2582C40.0375 20.4582 40.1175 21.6582 40.1708 22.8582C40.2242 23.4715 40.1975 24.0849 40.0908 24.6982C40.0108 25.3115 39.7442 25.8582 39.2908 26.3382C38.8908 26.7382 38.3842 27.0049 37.7708 27.1382C37.1842 27.2982 36.6241 27.2982 36.0908 27.1382C35.4775 26.9515 34.9575 26.6048 34.5308 26.0982C34.1042 25.6182 33.8508 25.0582 33.7708 24.4182C33.3175 24.4449 32.8508 24.4582 32.3708 24.4582C31.8908 24.4582 31.4242 24.4582 30.9708 24.4582C30.8642 24.4848 30.7575 24.4982 30.6508 24.4982C30.5442 24.4982 30.4508 24.5249 30.3708 24.5782C30.2375 24.6582 30.1308 24.7515 30.0508 24.8582C29.9975 24.9915 29.9308 25.1249 29.8508 25.2582C29.6108 25.7115 29.2775 26.0982 28.8508 26.4182C28.4508 26.7649 27.9841 26.9782 27.4508 27.0582C26.9442 27.1649 26.4375 27.1248 25.9308 26.9382C25.4242 26.7782 24.9975 26.5115 24.6508 26.1382C24.1708 25.6049 23.8908 24.9648 23.8108 24.2182C23.7308 23.4715 23.7175 22.7382 23.7708 22.0182C23.9042 19.8582 24.1308 17.7115 24.4508 15.5782C24.7975 13.4182 25.2775 11.2848 25.8908 9.17818C26.1842 8.13818 26.5842 7.12485 27.0908 6.13818C27.5975 5.12485 28.3175 4.33818 29.2508 3.77818C29.8642 3.40485 30.5175 3.16485 31.2108 3.05818C31.9042 2.95151 32.5975 2.99152 33.2908 3.17818C33.9841 3.33818 34.6241 3.61818 35.2108 4.01818C35.7975 4.39152 36.3175 4.85818 36.7708 5.41818C37.4375 6.21818 37.9175 7.12485 38.2108 8.13818C38.5308 9.15152 38.7841 10.1648 38.9708 11.1782C39.1041 11.9249 39.2242 12.6715 39.3308 13.4182C39.4375 14.1382 39.5308 14.8848 39.6108 15.6582ZM33.3708 17.9382C33.3175 17.4848 33.2642 17.0182 33.2108 16.5382C33.1842 16.0582 33.1442 15.5915 33.0908 15.1382L32.6108 12.2582C32.5575 11.9915 32.5042 11.7248 32.4508 11.4582C32.3975 11.1915 32.3308 10.9115 32.2508 10.6182C32.2508 10.6448 32.2375 10.6715 32.2108 10.6982C32.2108 10.6982 32.2108 10.7248 32.2108 10.7782C31.8375 11.9782 31.5175 13.1782 31.2508 14.3782C31.0108 15.5782 30.7975 16.8048 30.6108 18.0582C31.5175 17.9782 32.4375 17.9382 33.3708 17.9382Z" stroke="#6F0C88" stroke-width="6" mask="url(#path-1-outside-1_0_1)"/>
<path d="M65.4064 5.09818C65.5398 5.41818 65.6198 5.73818 65.6464 6.05818C65.6998 6.37818 65.7398 6.71152 65.7664 7.05818C66.1664 12.0982 66.0064 17.1248 65.2864 22.1382C65.2331 22.6715 65.1398 23.1915 65.0064 23.6982C64.8998 24.2315 64.7131 24.7248 64.4464 25.1782C64.1531 25.7115 63.7531 26.1649 63.2464 26.5382C62.7398 26.9382 62.1798 27.2048 61.5664 27.3382C60.9531 27.4715 60.3264 27.4582 59.6864 27.2982C59.0731 27.1382 58.5264 26.8449 58.0464 26.4182C57.6731 26.0982 57.3531 25.7248 57.0864 25.2982C56.8198 24.8715 56.5798 24.4315 56.3664 23.9782C55.9664 23.2049 55.5664 22.4448 55.1664 21.6982C54.7931 20.9515 54.4064 20.1915 54.0064 19.4182C53.6331 20.0582 53.2998 20.7248 53.0064 21.4182C52.7131 22.0848 52.3798 22.7382 52.0064 23.3782C51.6331 24.0448 51.2064 24.6582 50.7264 25.2182C50.2731 25.8048 49.7131 26.2849 49.0464 26.6582C48.4331 26.9782 47.8064 27.1382 47.1664 27.1382C46.5264 27.1649 45.9131 27.0582 45.3264 26.8182C44.7398 26.5782 44.2198 26.2182 43.7664 25.7382C43.3131 25.2582 42.9798 24.6982 42.7664 24.0582C42.5798 23.5249 42.4598 22.9915 42.4064 22.4582C42.3798 21.8982 42.3531 21.3382 42.3264 20.7782C42.2464 18.5382 42.2198 16.3115 42.2464 14.0982C42.2998 11.8848 42.4198 9.65818 42.6064 7.41818C42.6598 6.96485 42.7264 6.52485 42.8064 6.09818C42.8864 5.64485 43.0331 5.21818 43.2464 4.81818C43.5398 4.31152 43.9531 3.91152 44.4864 3.61818C45.0464 3.32485 45.6331 3.20485 46.2464 3.25818C46.8331 3.31152 47.3664 3.52485 47.8464 3.89818C48.3264 4.27152 48.6731 4.73818 48.8864 5.29818C49.0464 5.69818 49.1264 6.12485 49.1264 6.57818C49.1531 7.00485 49.1531 7.44485 49.1264 7.89818C49.0464 9.17818 48.9664 10.4448 48.8864 11.6982C48.8064 12.9515 48.7264 14.2182 48.6464 15.4982C49.0998 14.9648 49.4598 14.3648 49.7264 13.6982C49.9931 13.0048 50.2864 12.3515 50.6064 11.7382C50.9264 11.0982 51.3398 10.5115 51.8464 9.97818C52.3798 9.44485 52.9931 9.15152 53.6864 9.09818C54.4598 9.04485 55.1664 9.28485 55.8064 9.81818C56.4464 10.3248 56.9531 10.9248 57.3264 11.6182C57.6998 12.3115 58.0198 13.0315 58.2864 13.7782C58.5798 14.4982 58.9664 15.1648 59.4464 15.7782C59.5798 13.2448 59.5398 10.7115 59.3264 8.17818C59.2731 7.67152 59.2331 7.16485 59.2064 6.65818C59.1798 6.12485 59.2731 5.63152 59.4864 5.17818C59.6998 4.59152 60.0731 4.11152 60.6064 3.73818C61.1398 3.33818 61.7131 3.12485 62.3264 3.09818C62.9398 3.07152 63.5264 3.23152 64.0864 3.57818C64.6464 3.92485 65.0598 4.37818 65.3264 4.93818C65.3798 5.04485 65.4064 5.09818 65.4064 5.09818Z" stroke="#6F0C88" stroke-width="6" mask="url(#path-1-outside-1_0_1)"/>
<path d="M85.1327 19.0582C85.3994 19.8848 85.4527 20.6715 85.2927 21.4182C85.0794 22.4315 84.6127 23.3115 83.8927 24.0582C83.1727 24.8048 82.3594 25.4049 81.4527 25.8582C80.386 26.3915 79.2527 26.7515 78.0527 26.9382C76.8794 27.1515 75.6927 27.2182 74.4927 27.1382C74.0127 27.1115 73.4927 27.0582 72.9327 26.9782C72.3994 26.8982 71.8794 26.7649 71.3727 26.5782C70.866 26.3915 70.3994 26.1382 69.9727 25.8182C69.5727 25.4982 69.266 25.0849 69.0527 24.5782C68.8394 24.1249 68.7594 23.6448 68.8127 23.1382C68.866 22.6315 69.026 22.1649 69.2927 21.7382C69.5594 21.3115 69.906 20.9648 70.3327 20.6982C70.786 20.4315 71.266 20.2715 71.7727 20.2182C72.306 20.1649 72.8394 20.2182 73.3727 20.3782C73.906 20.5115 74.4394 20.6049 74.9727 20.6582C76.0927 20.7915 77.1594 20.6315 78.1727 20.1782C77.506 19.6715 76.7994 19.2582 76.0527 18.9382C75.306 18.5915 74.546 18.2315 73.7727 17.8582C72.9994 17.4848 72.2527 17.0715 71.5327 16.6182C70.8394 16.1648 70.2527 15.5915 69.7727 14.8982C69.2127 14.1248 68.8527 13.2582 68.6927 12.2982C68.5594 11.3115 68.6394 10.3515 68.9327 9.41818C69.1994 8.48485 69.6394 7.64485 70.2527 6.89818C70.866 6.12485 71.586 5.48485 72.4127 4.97818C73.2394 4.49818 74.1194 4.13818 75.0527 3.89818C76.0127 3.65818 76.9727 3.55152 77.9327 3.57818C78.5727 3.60485 79.2127 3.68485 79.8527 3.81818C80.4927 3.95152 81.106 4.16485 81.6927 4.45818C82.2794 4.77818 82.786 5.19152 83.2127 5.69818C83.666 6.17818 83.986 6.73818 84.1727 7.37818C84.3594 7.99152 84.3727 8.63152 84.2127 9.29818C84.0527 9.96485 83.7327 10.5248 83.2527 10.9782C82.9327 11.2715 82.5594 11.4848 82.1327 11.6182C81.7327 11.7248 81.3194 11.7648 80.8927 11.7382C80.4927 11.7115 80.0927 11.6182 79.6927 11.4582C79.2927 11.2715 78.9594 11.0182 78.6927 10.6982C78.586 10.5915 78.4927 10.4848 78.4127 10.3782C78.3327 10.2715 78.226 10.1915 78.0927 10.1382C77.8794 10.0315 77.5994 10.0315 77.2527 10.1382C76.826 10.1915 76.3994 10.2982 75.9727 10.4582C75.5727 10.5915 75.2927 10.8448 75.1327 11.2182C75.8794 11.6715 76.6394 12.0848 77.4127 12.4582C78.186 12.8048 78.9594 13.1782 79.7327 13.5782C80.506 13.9515 81.2527 14.3915 81.9727 14.8982C82.6927 15.3782 83.3194 15.9515 83.8527 16.6182C84.466 17.3382 84.8927 18.1515 85.1327 19.0582Z" stroke="#6F0C88" stroke-width="6" mask="url(#path-1-outside-1_0_1)"/>
<path d="M92.9068 27.2182C92.8001 27.2182 92.7068 27.2049 92.6268 27.1782C92.5468 27.1782 92.4534 27.1649 92.3468 27.1382C91.6801 27.0315 91.0934 26.7248 90.5868 26.2182C90.1068 25.7115 89.8134 25.1115 89.7068 24.4182C89.6001 23.7515 89.7068 23.0982 90.0268 22.4582C90.3734 21.8182 90.8534 21.3515 91.4668 21.0582C92.0801 20.7649 92.7334 20.6849 93.4268 20.8182C94.1468 20.9249 94.7467 21.2182 95.2268 21.6982C95.7334 22.2048 96.0134 22.7782 96.0668 23.4182C96.1468 24.0582 96.0667 24.6582 95.8268 25.2182C95.5868 25.7782 95.2001 26.2449 94.6668 26.6182C94.1601 27.0182 93.5734 27.2182 92.9068 27.2182Z" stroke="#6F0C88" stroke-width="6" mask="url(#path-1-outside-1_0_1)"/>
<path d="M117.341 9.13818C117.581 9.83152 117.701 10.5382 117.701 11.2582C117.674 12.6182 117.274 13.8848 116.501 15.0582C115.754 16.2048 114.821 17.1515 113.701 17.8982C113.088 18.3248 112.434 18.6982 111.741 19.0182C111.074 19.3115 110.394 19.5648 109.701 19.7782C109.621 19.8048 109.341 19.8715 108.861 19.9782C108.381 20.0582 107.861 20.1515 107.301 20.2582C106.768 20.3382 106.288 20.4182 105.861 20.4982C105.434 20.5515 105.221 20.5515 105.221 20.4982C105.194 21.1382 105.261 21.7915 105.421 22.4582C105.608 23.0982 105.648 23.7382 105.541 24.3782C105.434 25.0182 105.128 25.5782 104.621 26.0582C104.141 26.5648 103.581 26.8848 102.941 27.0182C102.274 27.1248 101.621 27.0182 100.981 26.6982C100.368 26.4049 99.9011 25.9648 99.5811 25.3782C99.3945 25.0315 99.2611 24.6582 99.1811 24.2582C99.1011 23.8848 99.0345 23.5115 98.9811 23.1382C98.6345 20.3915 98.4078 17.6448 98.3011 14.8982C98.2211 12.1515 98.3145 9.40485 98.5811 6.65818C98.6345 6.33818 98.6745 6.03152 98.7011 5.73818C98.7545 5.41818 98.8611 5.11152 99.0211 4.81818C99.2345 4.36485 99.5545 4.01818 99.9811 3.77818C100.434 3.51152 100.901 3.35152 101.381 3.29818C102.368 3.16485 103.354 3.08485 104.341 3.05818C105.354 3.03152 106.354 3.03152 107.341 3.05818C108.328 3.11152 109.301 3.21818 110.261 3.37818C111.248 3.51152 112.194 3.80485 113.101 4.25818C114.088 4.76485 114.954 5.44485 115.701 6.29818C116.474 7.15152 117.021 8.09818 117.341 9.13818ZM108.821 13.2182C109.248 13.0582 109.648 12.8582 110.021 12.6182C110.421 12.3782 110.754 12.0715 111.021 11.6982C111.128 11.5382 111.181 11.4049 111.181 11.2982C111.234 11.0582 111.141 10.8182 110.901 10.5782C110.634 10.2848 110.314 10.0715 109.941 9.93818C109.594 9.80485 109.234 9.71152 108.861 9.65818C108.221 9.57818 107.581 9.55152 106.941 9.57818C106.301 9.60485 105.674 9.64485 105.061 9.69818C104.981 9.69818 104.928 9.71152 104.901 9.73818C104.901 9.73818 104.874 9.79152 104.821 9.89818C104.794 10.5915 104.781 11.2848 104.781 11.9782C104.781 12.6448 104.781 13.3249 104.781 14.0182C104.781 14.0715 104.941 14.0848 105.261 14.0582C105.608 14.0048 105.994 13.9382 106.421 13.8582C106.848 13.7782 107.234 13.6982 107.581 13.6182C107.954 13.5382 108.181 13.4848 108.261 13.4582C108.368 13.4048 108.461 13.3649 108.541 13.3382C108.621 13.3115 108.714 13.2715 108.821 13.2182Z" stroke="#6F0C88" stroke-width="6" mask="url(#path-1-outside-1_0_1)"/>
<path d="M136.516 21.5382C137.21 22.1782 137.53 22.9515 137.476 23.8582C137.476 24.3915 137.343 24.8982 137.076 25.3782C136.81 25.8582 136.45 26.2449 135.996 26.5382C135.463 26.8582 134.876 27.0182 134.236 27.0182C133.596 27.0448 132.97 27.0582 132.356 27.0582C131.21 27.0582 130.063 27.0448 128.916 27.0182C127.77 27.0182 126.61 27.0182 125.436 27.0182C125.143 27.0182 124.836 27.0049 124.516 26.9782C124.196 26.9515 123.89 26.8715 123.596 26.7382C123.276 26.6049 122.996 26.3915 122.756 26.0982C122.516 25.8048 122.33 25.4982 122.196 25.1782C122.063 24.8315 121.956 24.4715 121.876 24.0982C121.796 23.7515 121.73 23.3915 121.676 23.0182C121.303 20.3515 121.076 17.6982 120.996 15.0582C120.943 12.3915 121.023 9.72485 121.236 7.05818C121.263 6.73818 121.29 6.41818 121.316 6.09818C121.37 5.77818 121.463 5.47152 121.596 5.17818C121.836 4.56485 122.236 4.08485 122.796 3.73818C123.356 3.36485 123.956 3.19152 124.596 3.21818C125.236 3.21818 125.823 3.41818 126.356 3.81818C126.916 4.19152 127.303 4.68485 127.516 5.29818C127.676 5.75152 127.756 6.21818 127.756 6.69818C127.756 7.17818 127.73 7.65818 127.676 8.13818C127.303 12.2982 127.383 16.4448 127.916 20.5782C128.743 20.5515 129.556 20.5382 130.356 20.5382C131.183 20.5382 132.01 20.5382 132.836 20.5382C133.316 20.5382 133.796 20.5515 134.276 20.5782C134.756 20.6048 135.223 20.7248 135.676 20.9382C135.996 21.0982 136.276 21.2982 136.516 21.5382Z" stroke="#6F0C88" stroke-width="6" mask="url(#path-1-outside-1_0_1)"/>
<path d="M155.001 15.6582C155.135 16.8582 155.241 18.0582 155.321 19.2582C155.428 20.4582 155.508 21.6582 155.561 22.8582C155.615 23.4715 155.588 24.0849 155.481 24.6982C155.401 25.3115 155.135 25.8582 154.681 26.3382C154.281 26.7382 153.775 27.0049 153.161 27.1382C152.575 27.2982 152.015 27.2982 151.481 27.1382C150.868 26.9515 150.348 26.6048 149.921 26.0982C149.495 25.6182 149.241 25.0582 149.161 24.4182C148.708 24.4449 148.241 24.4582 147.761 24.4582C147.281 24.4582 146.815 24.4582 146.361 24.4582C146.255 24.4848 146.148 24.4982 146.041 24.4982C145.935 24.4982 145.841 24.5249 145.761 24.5782C145.628 24.6582 145.521 24.7515 145.441 24.8582C145.388 24.9915 145.321 25.1249 145.241 25.2582C145.001 25.7115 144.668 26.0982 144.241 26.4182C143.841 26.7649 143.375 26.9782 142.841 27.0582C142.335 27.1649 141.828 27.1248 141.321 26.9382C140.815 26.7782 140.388 26.5115 140.041 26.1382C139.561 25.6049 139.281 24.9648 139.201 24.2182C139.121 23.4715 139.108 22.7382 139.161 22.0182C139.295 19.8582 139.521 17.7115 139.841 15.5782C140.188 13.4182 140.668 11.2848 141.281 9.17818C141.575 8.13818 141.975 7.12485 142.481 6.13818C142.988 5.12485 143.708 4.33818 144.641 3.77818C145.255 3.40485 145.908 3.16485 146.601 3.05818C147.295 2.95151 147.988 2.99152 148.681 3.17818C149.375 3.33818 150.015 3.61818 150.601 4.01818C151.188 4.39152 151.708 4.85818 152.161 5.41818C152.828 6.21818 153.308 7.12485 153.601 8.13818C153.921 9.15152 154.175 10.1648 154.361 11.1782C154.495 11.9249 154.615 12.6715 154.721 13.4182C154.828 14.1382 154.921 14.8848 155.001 15.6582ZM148.761 17.9382C148.708 17.4848 148.655 17.0182 148.601 16.5382C148.575 16.0582 148.535 15.5915 148.481 15.1382L148.001 12.2582C147.948 11.9915 147.895 11.7248 147.841 11.4582C147.788 11.1915 147.721 10.9115 147.641 10.6182C147.641 10.6448 147.628 10.6715 147.601 10.6982C147.601 10.6982 147.601 10.7248 147.601 10.7782C147.228 11.9782 146.908 13.1782 146.641 14.3782C146.401 15.5782 146.188 16.8048 146.001 18.0582C146.908 17.9782 147.828 17.9382 148.761 17.9382Z" stroke="#6F0C88" stroke-width="6" mask="url(#path-1-outside-1_0_1)"/>
<path d="M175.197 20.6582C175.49 21.3782 175.504 22.0982 175.237 22.8182C174.97 23.5382 174.544 24.1649 173.957 24.6982C173.184 25.3648 172.344 25.9115 171.437 26.3382C170.53 26.7915 169.57 27.0849 168.557 27.2182C167.384 27.3782 166.21 27.3115 165.037 27.0182C163.89 26.7515 162.85 26.2715 161.917 25.5782C161.197 25.0449 160.57 24.4049 160.037 23.6582C159.504 22.9382 159.064 22.1515 158.717 21.2982C158.37 20.4449 158.117 19.5782 157.957 18.6982C157.797 17.8182 157.69 16.9115 157.637 15.9782C157.584 14.6182 157.677 13.2715 157.917 11.9382C158.157 10.6048 158.61 9.33818 159.277 8.13818C159.944 6.93818 160.81 5.89818 161.877 5.01818C162.97 4.13818 164.197 3.59152 165.557 3.37818C166.944 3.16485 168.304 3.33818 169.637 3.89818C170.997 4.45818 172.09 5.32485 172.917 6.49818C173.21 6.87152 173.437 7.29818 173.597 7.77818C173.784 8.23152 173.864 8.69818 173.837 9.17818C173.81 9.87152 173.57 10.5115 173.117 11.0982C172.664 11.6848 172.09 12.0582 171.397 12.2182C170.704 12.3782 170.024 12.3115 169.357 12.0182C168.69 11.7248 168.184 11.2715 167.837 10.6582C167.757 10.5248 167.677 10.4049 167.597 10.2982C167.544 10.1648 167.464 10.0582 167.357 9.97818C167.117 9.79152 166.837 9.73818 166.517 9.81818C166.197 9.89818 165.93 10.0448 165.717 10.2582C165.264 10.6315 164.917 11.1115 164.677 11.6982C164.464 12.2582 164.317 12.8315 164.237 13.4182C163.997 14.9115 164.064 16.4448 164.437 18.0182C164.57 18.5248 164.757 19.0049 164.997 19.4582C165.237 19.9115 165.584 20.2715 166.037 20.5382C166.41 20.7515 166.837 20.8582 167.317 20.8582C167.797 20.8315 168.237 20.7115 168.637 20.4982C169.037 20.2848 169.397 20.0448 169.717 19.7782C170.064 19.4848 170.437 19.2315 170.837 19.0182C171.504 18.6982 172.21 18.6315 172.957 18.8182C173.704 18.9782 174.304 19.3515 174.757 19.9382C174.837 20.0715 174.917 20.1915 174.997 20.2982C175.077 20.4049 175.144 20.5249 175.197 20.6582Z" stroke="#6F0C88" stroke-width="6" mask="url(#path-1-outside-1_0_1)"/>
<path d="M193.188 21.6182C193.641 22.0715 193.921 22.5648 194.028 23.0982C194.188 23.6582 194.161 24.2449 193.948 24.8582C193.761 25.4982 193.441 26.0049 192.988 26.3782C192.534 26.7515 192.001 26.9648 191.388 27.0182C190.801 27.0982 190.228 27.1515 189.668 27.1782C188.548 27.2049 187.428 27.2182 186.308 27.2182C185.188 27.2449 184.068 27.2582 182.948 27.2582C182.601 27.2849 182.254 27.2849 181.908 27.2582C181.588 27.2582 181.254 27.1915 180.908 27.0582C180.534 26.9249 180.188 26.7248 179.868 26.4582C179.574 26.1915 179.348 25.8715 179.188 25.4982C179.054 25.2582 178.961 25.0049 178.908 24.7382C178.881 24.4715 178.841 24.1915 178.788 23.8982C178.414 21.1515 178.174 18.4049 178.068 15.6582C177.961 12.8848 178.028 10.1115 178.268 7.33818C178.321 6.80485 178.401 6.27152 178.508 5.73818C178.641 5.20485 178.908 4.75152 179.308 4.37818C179.601 4.08485 179.948 3.88485 180.348 3.77818C180.774 3.64485 181.201 3.55152 181.628 3.49818C184.268 3.04485 186.961 2.92485 189.708 3.13818C190.028 3.16485 190.348 3.20485 190.668 3.25818C191.014 3.28485 191.348 3.36485 191.668 3.49818C192.281 3.76485 192.761 4.21818 193.108 4.85818C193.481 5.47152 193.628 6.11152 193.548 6.77818C193.468 7.47152 193.188 8.08485 192.708 8.61818C192.228 9.12485 191.654 9.44485 190.988 9.57818C190.641 9.63152 190.294 9.65818 189.948 9.65818C189.628 9.65818 189.294 9.63152 188.948 9.57818C188.228 9.52485 187.494 9.51152 186.748 9.53818C186.028 9.53818 185.308 9.56485 184.588 9.61818C184.561 10.0715 184.548 10.5248 184.548 10.9782C184.548 11.4315 184.534 11.8848 184.508 12.3382C185.254 12.3915 186.001 12.3782 186.748 12.2982C187.494 12.1915 188.214 12.2848 188.908 12.5782C189.494 12.8448 189.961 13.2715 190.308 13.8582C190.681 14.4448 190.854 15.0582 190.828 15.6982C190.774 16.3649 190.534 16.9649 190.108 17.4982C189.681 18.0315 189.161 18.4049 188.548 18.6182C187.934 18.8048 187.294 18.8582 186.628 18.7782C185.988 18.6982 185.361 18.7115 184.748 18.8182C184.774 19.1382 184.801 19.4582 184.828 19.7782C184.854 20.0982 184.881 20.4182 184.908 20.7382C185.761 20.7382 186.588 20.7382 187.388 20.7382C188.214 20.7115 189.054 20.6849 189.908 20.6582C190.254 20.6582 190.588 20.6715 190.908 20.6982C191.254 20.6982 191.588 20.7515 191.908 20.8582C192.361 20.9648 192.788 21.2182 193.188 21.6182Z" stroke="#6F0C88" stroke-width="6" mask="url(#path-1-outside-1_0_1)"/>
</g>
<defs>
<clipPath id="clip0_0_1">
<rect width="1440" height="3907" fill="white" transform="translate(-155 -40)"/>
</clipPath>
</defs>
</svg>
