<svg width="64" height="64" viewBox="0 0 64 64" fill="none" xmlns="http://www.w3.org/2000/svg">
<g id="phone 1" clip-path="url(#clip0_6_592)">
<path id="Vector" d="M32 64C49.6731 64 64 49.6731 64 32C64 14.3269 49.6731 0 32 0C14.3269 0 0 14.3269 0 32C0 49.6731 14.3269 64 32 64Z" fill="#2AB930"/>
<path id="Vector_2" opacity="0.2" d="M29 25.3C28.6 20.5 23.6 18.2 23.4 18.1C23.1 18 22.9 18 22.7 18C16.9 19 16.1 22.3 16 22.5V23.1C22.9 44.5 37.2 48.4 41.9 49.7C42.3 49.8 42.6 49.9 42.8 50C42.9 50 43 50.1 43.1 50.1C43.3 50.1 43.4 50.1 43.6 50C43.7 49.9 47.1 48.3 48 43.1C48 42.9 48 42.6 47.9 42.4C47.8 42.3 46 38.9 41.1 37.7C40.8 37.6 40.4 37.7 40.1 37.9C38.5 39.2 36.4 40.6 35.5 40.8C29.3 37.8 25.8 31.9 25.7 30.8C25.6 30.2 27 28 28.7 26.2C28.9 26 29 25.6 29 25.3Z" fill="#231F20"/>
<path id="Vector_3" d="M29 23.3C28.6 18.5 23.6 16.2 23.4 16.1C23.1 16 22.9 16 22.7 16C16.9 17 16.1 20.3 16 20.5V21.1C22.9 42.5 37.2 46.4 41.9 47.7C42.3 47.8 42.6 47.9 42.8 48C42.9 48 43 48.1 43.1 48.1C43.3 48.1 43.4 48.1 43.6 48C43.7 47.9 47.1 46.3 48 41.1C48 40.9 48 40.6 47.9 40.4C47.8 40.3 46 36.9 41.1 35.7C40.8 35.6 40.4 35.7 40.1 35.9C38.5 37.2 36.4 38.6 35.5 38.8C29.3 35.8 25.8 29.9 25.7 28.8C25.6 28.2 27 26 28.7 24.2C28.9 24 29 23.6 29 23.3Z" fill="white"/>
</g>
<defs>
<clipPath id="clip0_6_592">
<rect width="64" height="64" fill="white"/>
</clipPath>
</defs>
</svg>
