<?xml version="1.0" encoding="UTF-8"?>
<!DOCTYPE svg PUBLIC "-//W3C//DTD SVG 1.1//EN" "http://www.w3.org/Graphics/SVG/1.1/DTD/svg11.dtd">
<svg xmlns="http://www.w3.org/2000/svg" version="1.1" width="1554px" height="814px" style="shape-rendering:geometricPrecision; text-rendering:geometricPrecision; image-rendering:optimizeQuality; fill-rule:evenodd; clip-rule:evenodd" xmlns:xlink="http://www.w3.org/1999/xlink">
<g><path style="opacity:0.999" fill="#c7ccf0" d="M -0.5,17.5 C 44.1827,45.33 92.1827,65.83 143.5,79C 195.497,94.055 248.497,103.388 302.5,107C 354.177,111 404.51,104.667 453.5,88C 488.407,71.0315 525.073,59.6982 563.5,54C 596.313,50.0953 628.979,51.0953 661.5,57C 678.977,60.3692 696.31,64.3692 713.5,69C 744.573,78.6017 775.906,87.2683 807.5,95C 850.4,104.604 893.4,104.938 936.5,96C 983.657,87.4607 1030.66,78.1273 1077.5,68C 1117.13,59.6975 1157.13,56.6975 1197.5,59C 1230.37,61.6334 1261.37,70.6334 1290.5,86C 1304.24,94.7314 1318.24,103.065 1332.5,111C 1352.72,117.622 1373.39,119.289 1394.5,116C 1405.3,114.3 1415.97,111.966 1426.5,109C 1459.84,97.3268 1493.18,85.6601 1526.5,74C 1533.11,72.5594 1539.78,72.226 1546.5,73C 1549.14,73.6529 1551.47,74.8196 1553.5,76.5C 1553.5,312.167 1553.5,547.833 1553.5,783.5C 1540.94,783.148 1529.27,779.648 1518.5,773C 1487.83,754.333 1457.17,735.667 1426.5,717C 1404.18,704.339 1381.18,693.006 1357.5,683C 1317.22,666.138 1275.55,661.472 1232.5,669C 1196.48,675.786 1161.81,686.786 1128.5,702C 1108.89,710.804 1089.56,720.138 1070.5,730C 1051.79,736.951 1032.46,740.118 1012.5,739.5C 987.558,739.118 962.892,736.284 938.5,731C 897.019,721.437 855.353,712.771 813.5,705C 773.866,698.217 734.199,697.884 694.5,704C 677.667,707.389 661.333,712.389 645.5,719C 616.419,734.708 586.086,747.375 554.5,757C 495.02,775.472 438.02,769.805 383.5,740C 368.495,731.166 353.828,721.833 339.5,712C 330.087,706.265 320.421,700.932 310.5,696C 297.404,690.207 283.737,688.207 269.5,690C 248.314,693.618 228.314,700.618 209.5,711C 196.335,718.415 183.335,726.081 170.5,734C 142.844,753.163 114.844,771.83 86.5,790C 69.9465,800.616 52.2798,808.449 33.5,813.5C 27.1667,813.5 20.8333,813.5 14.5,813.5C 9.13235,811.648 4.13235,808.981 -0.5,805.5C -0.5,542.833 -0.5,280.167 -0.5,17.5 Z"/></g>
</svg>
