<svg id="Layer_1" data-name="Layer 1" xmlns="http://www.w3.org/2000/svg" viewBox="0 0 347.32 326.32"><defs><style>.cls-1{fill:#e1eedc;}.cls-2{fill:#eed9e8;}</style></defs><title>Untitled-2</title><path class="cls-1" d="M101.19,265.64a2.64,2.64,0,0,1-1.47-.25C100.37,264.53,100.77,265.16,101.19,265.64Z" transform="translate(-0.64 -16.67)"/><path class="cls-1" d="M25.26,272.31a.66.66,0,0,1,.75-.41A.62.62,0,0,1,25.26,272.31Z" transform="translate(-0.64 -16.67)"/><path class="cls-1" d="M185.55,270.07c-.19.25-.47.23-.74.23C185,270,185.14,269.64,185.55,270.07Z" transform="translate(-0.64 -16.67)"/><path class="cls-1" d="M163,274.5l-.29.13-.11-.25a1.57,1.57,0,0,1,.31-.08S162.94,274.41,163,274.5Z" transform="translate(-0.64 -16.67)"/><path class="cls-2" d="M348,93.56V334.93c-1.46,0-2.92,0-4.38-.09a89.29,89.29,0,0,1-28.38-5.58c-5.09-1.9-10.06-4.11-15.23-5.78a50.48,50.48,0,0,0-25.73-1.09,135.83,135.83,0,0,0-24,7.43c-4.26,1.69-8.45,3.56-12.64,5.41a62.57,62.57,0,0,1-20.88,5.46,47.23,47.23,0,0,1-17.3-2.1,98.15,98.15,0,0,1-15-6.33c-5.25-2.61-10.41-5.41-15.81-7.7a71.69,71.69,0,0,0-22-5.65,76.85,76.85,0,0,0-24.21,2.2A141.81,141.81,0,0,0,98,329.67a27.63,27.63,0,0,1-15.57,2c-5.1-.78-9.85-2.67-14.58-4.67-3.15-1.33-6.3-2.7-9.54-3.82a33,33,0,0,0-9.35-1.9,20,20,0,0,0-7.91,1.31,204.61,204.61,0,0,0-25.21,11.54Q8.1,338.33.64,343V16.67a31.62,31.62,0,0,0,5.27,7.5A178.64,178.64,0,0,0,37.25,51.75,175.37,175.37,0,0,0,60.33,65.69C70,70.52,80.11,74.33,90.84,76a58,58,0,0,0,10.44.85c9.46-.24,18.29-2.58,26.1-8.3a60.17,60.17,0,0,1,28.35-11.32,72.24,72.24,0,0,1,13.56-.43A91.89,91.89,0,0,1,192,61.27a99.5,99.5,0,0,1,11.69,4.66,107.31,107.31,0,0,1,27.48,18.32c2.53,2.35,4.83,4.94,7.29,7.37A69.64,69.64,0,0,0,275,111.06a70.86,70.86,0,0,0,16.5,1.3A97.84,97.84,0,0,0,317,107.72a153.67,153.67,0,0,0,30.44-13.89Z" transform="translate(-0.64 -16.67)"/></svg>