<?xml version="1.0" encoding="UTF-8"?>
<!DOCTYPE svg PUBLIC "-//W3C//DTD SVG 1.1//EN" "http://www.w3.org/Graphics/SVG/1.1/DTD/svg11.dtd">
<svg xmlns="http://www.w3.org/2000/svg" version="1.1" width="1438px" height="720px" style="shape-rendering:geometricPrecision; text-rendering:geometricPrecision; image-rendering:optimizeQuality; fill-rule:evenodd; clip-rule:evenodd" xmlns:xlink="http://www.w3.org/1999/xlink">
<g><path style="opacity:0.999" fill="#dfffe1" d="M -0.5,-0.5 C 478.833,-0.5 958.167,-0.5 1437.5,-0.5C 1437.5,229.167 1437.5,458.833 1437.5,688.5C 1427.02,688.935 1416.69,690.435 1406.5,693C 1380.89,700.538 1355.22,707.871 1329.5,715C 1318.41,716.927 1307.41,718.427 1296.5,719.5C 1287.83,719.5 1279.17,719.5 1270.5,719.5C 1244.49,717.273 1218.83,712.44 1193.5,705C 1143.7,687.435 1093.7,670.435 1043.5,654C 1016.84,646.417 989.669,641.917 962,640.5C 935.211,641.77 908.711,645.27 882.5,651C 817.064,665.609 752.064,681.942 687.5,700C 647.804,707.167 608.137,706.833 568.5,699C 520.242,689.148 472.242,678.148 424.5,666C 356.338,650.167 288.338,650.833 220.5,668C 189.624,676.469 158.624,684.469 127.5,692C 104.372,697.194 81.0383,698.527 57.5,696C 35.3898,692.443 16.0565,683.276 -0.5,668.5C -0.5,445.5 -0.5,222.5 -0.5,-0.5 Z"/></g>
</svg>
