<svg id="Layer_1" data-name="Layer 1" xmlns="http://www.w3.org/2000/svg" viewBox="0 0 348.96 381"><defs><style>.cls-1{fill:#e1eedc;}.cls-2{fill:#e2f0de;}</style></defs><title>Untitled-4</title><path class="cls-1" d="M101.19,265.64a2.64,2.64,0,0,1-1.47-.25C100.37,264.53,100.77,265.16,101.19,265.64Z"/><path class="cls-1" d="M25.26,272.31a.66.66,0,0,1,.75-.41A.62.62,0,0,1,25.26,272.31Z"/><path class="cls-1" d="M185.55,270.07c-.19.25-.47.23-.74.23C185,270,185.14,269.64,185.55,270.07Z"/><path class="cls-1" d="M163,274.5l-.29.13-.11-.25a1.57,1.57,0,0,1,.31-.08S162.94,274.41,163,274.5Z"/><path class="cls-2" d="M348,270.12c-.74.24-1.58.51-2.52.84-2.78,1-5.74,1.46-8.6,2.23-2.55.69-5.11,1.41-6.74,3.69H306.22c-.76-.59-1.43-1.49-2.3-1.71-5.1-1.32-9.89-3.6-15.19-4.36a27.37,27.37,0,0,1-7.54-2.33c-10.82-5-22.54-7.25-34-10.24a16.06,16.06,0,0,0-3.91-.5c-5-.06-10-.09-14.92,0a27.91,27.91,0,0,0-4.89.66c-5.5,1-11,2-16.47,3.19-6.44,1.38-12.84,2.91-19.25,4.42-7.7,1.81-15.43,3.5-23.05,5.55a43.54,43.54,0,0,1-22.49.22,11.92,11.92,0,0,0-1.93-.43c-11.92-.87-23.28-4.35-34.85-6.85-7.72-1.68-15.42-3.6-23.47-3a52,52,0,0,1-7,0c-12.73-.84-25,1.78-37.15,4.76-6.7,1.65-13.43,3.27-20.22,4.53a29,29,0,0,1-17-2.24V104.23c2.59-.06,5.17-.1,7.76-.1H318.71c8.29,0,16.57,0,24.86,0,1.47,0,2.93.06,4.39.17Z"/></svg>