<svg id="Layer_1" data-name="Layer 1" xmlns="http://www.w3.org/2000/svg" viewBox="0 0 348.32 382"><defs><style>.cls-1{fill:#fff;stroke:#231f20;stroke-miterlimit:10;}.cls-2{fill:#e1eedc;}.cls-3{fill:#fbe0df;}</style></defs><title>Untitled-1</title><rect class="cls-1" x="0.5" y="0.5" width="347.32" height="381"/><path class="cls-2" d="M101.19,265.64a2.64,2.64,0,0,1-1.47-.25C100.37,264.53,100.77,265.16,101.19,265.64Z" transform="translate(-0.14 0.5)"/><path class="cls-2" d="M25.26,272.31a.66.66,0,0,1,.75-.41A.62.62,0,0,1,25.26,272.31Z" transform="translate(-0.14 0.5)"/><path class="cls-2" d="M185.55,270.07c-.19.25-.47.23-.74.23C185,270,185.14,269.64,185.55,270.07Z" transform="translate(-0.14 0.5)"/><path class="cls-2" d="M163,274.5l-.29.13-.11-.25a1.57,1.57,0,0,1,.31-.08S162.94,274.41,163,274.5Z" transform="translate(-0.14 0.5)"/><path class="cls-3" d="M348,94.48v192q-173.67,0-347.32,0v-192q86.88,0,173.79,0Q261.19,94.5,348,94.48Z" transform="translate(-0.14 0.5)"/></svg>